<svg width="146" height="47" viewBox="0 0 146 47" fill="none" xmlns="http://www.w3.org/2000/svg">
<rect width="146" height="47" rx="23.5" fill="#EFF3F7"/>
<g clip-path="url(#clip0_5099_458)">
<path d="M34.8299 18.7499C34.5422 18.4938 34.2383 18.2566 33.9199 18.0399L33.9999 17.9699C34.0599 17.8999 34.1799 17.8399 34.2699 17.7499C34.3799 17.6254 34.4739 17.4877 34.5499 17.3399C34.5999 17.2399 34.6399 17.1399 34.6799 17.0499L35.2399 17.3499C35.3559 17.4322 35.4798 17.5025 35.6099 17.5599C35.8099 17.6199 35.9399 17.5599 35.9999 17.5599C36.0599 17.5599 36.1499 17.4199 36.1299 17.2799C36.1287 17.2148 36.1094 17.1512 36.074 17.0964C36.0387 17.0417 35.9888 16.9979 35.9299 16.9699C35.9299 16.9099 35.7899 16.7899 35.7699 16.7599L35.2599 16.1799C35.0672 16.0099 34.8634 15.8529 34.6499 15.7099C34.4799 15.6099 34.2999 15.5599 34.1299 15.4799C33.5599 15.2499 33.4299 15.1399 33.2299 15.2199C33.0299 15.2999 32.9299 15.4799 33.2299 15.7899C33.3829 15.9632 33.5466 16.1269 33.7199 16.2799C33.8399 16.3799 33.9399 16.4999 34.0499 16.6099L33.9399 16.6699C33.8099 16.7899 33.6299 16.8599 33.4999 16.9899C33.3727 17.1183 33.268 17.267 33.1899 17.4299V17.5899C31.8289 16.8605 30.3368 16.4085 28.7999 16.2599V16.0999C28.81 15.9768 28.81 15.8531 28.7999 15.7299C28.8141 15.6103 28.8141 15.4895 28.7999 15.3699C28.7999 15.1399 28.6899 14.8899 28.6099 14.5699C29.1799 14.5699 29.7499 14.4699 30.3299 14.3799C30.4077 14.3723 30.4795 14.3346 30.5299 14.2748C30.5804 14.215 30.6055 14.1379 30.5999 14.0599C30.5961 14.0205 30.5846 13.9821 30.5659 13.9471C30.5473 13.9122 30.5219 13.8812 30.4912 13.8561C30.4605 13.831 30.4252 13.8122 30.3872 13.8009C30.3492 13.7895 30.3093 13.7858 30.2699 13.7899C29.5106 13.835 28.7492 13.835 27.9899 13.7899C27.5028 13.7327 27.0212 13.6357 26.5499 13.4999C26.3924 13.4532 26.2461 13.375 26.1199 13.2699C26.0199 13.1999 25.8799 13.1499 25.9199 13.0399C25.9943 12.9213 26.1022 12.8274 26.2299 12.7699C26.3153 12.7193 26.411 12.6885 26.5099 12.6799C27.1599 12.6299 27.8999 12.5299 28.6099 12.4899C28.8964 12.4753 29.1834 12.4753 29.4699 12.4899C29.743 12.4744 30.0168 12.4744 30.2899 12.4899C30.4247 12.5044 30.5545 12.5488 30.6699 12.6199C30.7585 12.6809 30.8195 12.7743 30.8399 12.8799C30.875 13.0211 30.875 13.1688 30.8399 13.3099C30.8278 13.3533 30.8244 13.3986 30.8299 13.4432C30.8355 13.4879 30.8498 13.531 30.8722 13.5701C30.8945 13.6091 30.9243 13.6434 30.96 13.6708C30.9957 13.6983 31.0364 13.7184 31.0799 13.7299C31.1661 13.7547 31.2586 13.7445 31.3372 13.7014C31.4159 13.6583 31.4744 13.5859 31.4999 13.4999C31.585 13.1992 31.585 12.8807 31.4999 12.5799C31.4384 12.3482 31.3054 12.1417 31.1199 11.9899C30.9199 11.8339 30.6876 11.7245 30.4399 11.6699C30.1397 11.609 29.8356 11.5689 29.5299 11.5499C29.1116 11.5035 28.6905 11.4868 28.2699 11.4999C27.6499 11.4999 27.0199 11.5499 26.4499 11.5599C26.1114 11.5777 25.7852 11.6922 25.5099 11.8899C25.2133 12.0855 24.9803 12.3636 24.8399 12.6899C24.7679 12.8959 24.756 13.1181 24.8056 13.3306C24.8552 13.5431 24.9642 13.7371 25.1199 13.8899C25.4614 14.2092 25.889 14.4213 26.3499 14.4999C26.8637 14.5664 27.3819 14.5932 27.8999 14.5799C27.8299 14.8799 27.7699 15.1199 27.7299 15.3399C27.7212 15.4631 27.7212 15.5868 27.7299 15.7099V16.0799C27.7266 16.1031 27.7266 16.1267 27.7299 16.1499C26.8674 16.1137 26.0034 16.1606 25.1499 16.2899C23.6384 16.5669 22.2361 17.2661 21.1053 18.3067C19.9745 19.3472 19.1614 20.6866 18.7599 22.1699C17.8486 25.0683 18.1181 28.2092 19.5099 30.9099C21.2299 34.1299 25.6199 35.8199 29.6699 35.3899C39.6199 34.3799 39.1099 22.6099 34.8299 18.7499ZM34.4599 32.6599C33.4599 33.8699 30.9899 34.3999 27.9999 34.5599C25.0099 34.7199 23.2399 33.1599 21.2299 31.5599C20.9482 31.2353 20.7096 30.8756 20.5199 30.4899C19.2965 28.0442 19.0707 25.219 19.8899 22.6099C20.2718 21.3315 20.9581 20.1649 21.8899 19.2099C22.8637 18.3049 24.0617 17.6766 25.3599 17.3899C26.9878 17.1026 28.6565 17.14 30.2699 17.4999C31.7089 17.8864 33.0647 18.5338 34.2699 19.4099C35.8463 21.2985 36.7441 23.661 36.8199 26.1199C36.8799 28.7499 35.9999 31.3799 34.4599 32.6599Z" fill="#003366"/>
<path d="M28.1998 33.25C28.1998 33.25 28.1398 31.79 27.7898 31.79C27.6798 31.79 27.5998 31.85 27.4998 31.97C27.4243 32.1559 27.3738 32.3509 27.3498 32.55C27.3051 32.7128 27.2849 32.8813 27.2898 33.05C27.2944 33.2116 27.3144 33.3723 27.3498 33.53C27.4476 33.6341 27.5783 33.7012 27.7198 33.72C28.1998 33.72 28.1898 33.4 28.1998 33.25Z" fill="#343434"/>
<path d="M28.1998 18.5C28.1998 18.5 28.1398 19.96 27.7898 19.96C27.6798 19.96 27.5998 19.96 27.4998 19.78C27.4231 19.5946 27.3727 19.3994 27.3498 19.2C27.3049 19.0407 27.2847 18.8754 27.2898 18.71C27.295 18.5452 27.3151 18.3812 27.3498 18.22C27.4476 18.116 27.5783 18.0488 27.7198 18.03C28.1998 18.02 28.1898 18.35 28.1998 18.5Z" fill="#343434"/>
<path d="M34.5498 25.0199C34.2098 25.0899 33.9098 25.2399 33.5498 25.2999C33.4782 25.2999 33.4095 25.3284 33.3589 25.379C33.3082 25.4296 33.2798 25.4983 33.2798 25.5699C33.2798 25.6415 33.3082 25.7102 33.3589 25.7608C33.4095 25.8115 33.4782 25.8399 33.5498 25.8399C33.9131 25.9004 34.282 25.9205 34.6498 25.8999C34.8498 25.8999 35.0598 25.8399 35.2798 25.8299L35.5798 25.7699C35.6456 25.7019 35.6872 25.6141 35.698 25.5201C35.7089 25.4261 35.6884 25.3311 35.6398 25.2499C35.6038 25.1808 35.5528 25.1207 35.4905 25.074C35.4282 25.0272 35.3562 24.9951 35.2798 24.9799C35.0357 24.9643 34.7907 24.9778 34.5498 25.0199Z" fill="#343434"/>
<path d="M33.65 30.79C33.5446 30.6406 33.4311 30.497 33.31 30.36C33.1636 30.2021 33.003 30.0582 32.83 29.93C32.6711 29.8027 32.504 29.6858 32.33 29.58C32.2642 29.536 32.1887 29.5085 32.11 29.5C32.0384 29.5 31.9697 29.5284 31.9191 29.5791C31.8684 29.6297 31.84 29.6984 31.84 29.77C31.84 29.9 31.78 29.77 32.3 30.46C32.38 30.57 32.45 30.72 32.56 30.87C32.6657 31.0095 32.7827 31.1399 32.91 31.26C32.954 31.3055 33.0069 31.3414 33.0654 31.3654C33.1239 31.3895 33.1867 31.4013 33.25 31.4C33.55 31.33 33.81 31.01 33.65 30.79Z" fill="#343434"/>
<path d="M32.0798 20.2501C31.9998 20.4001 31.9398 20.5501 31.8798 20.6701C31.8198 20.7901 31.6298 21.0401 31.5798 21.1801C31.5497 21.2427 31.5327 21.3107 31.5298 21.3801C31.5298 21.4517 31.5582 21.5204 31.6089 21.571C31.6595 21.6216 31.7282 21.6501 31.7998 21.6501C31.7998 21.6501 31.8598 21.7401 32.4998 21.1201L32.7798 20.8201C32.8592 20.7177 32.9327 20.6109 32.9998 20.5001C33.0598 20.4001 33.1098 20.3001 33.1598 20.2001C33.175 20.1672 33.1829 20.1314 33.1829 20.0951C33.1829 20.0588 33.175 20.023 33.1598 19.9901C33.0998 19.6701 32.9098 19.5601 32.5198 19.7001C32.4398 19.7701 32.4198 19.7001 32.3498 19.8301C32.2474 19.9617 32.157 20.1023 32.0798 20.2501Z" fill="#343434"/>
<path d="M21.6899 24.8501C22.0199 24.9201 22.3199 25.0701 22.6899 25.1301C22.7615 25.1301 22.8302 25.1585 22.8808 25.2091C22.9314 25.2598 22.9599 25.3285 22.9599 25.4001C22.9599 25.4717 22.9314 25.5403 22.8808 25.591C22.8302 25.6416 22.7615 25.6701 22.6899 25.6701C22.327 25.7345 21.9576 25.7547 21.5899 25.7301C21.3799 25.7301 21.1699 25.6701 20.9499 25.6601L20.6499 25.6001C20.5841 25.5321 20.5425 25.4443 20.5316 25.3502C20.5208 25.2562 20.5413 25.1613 20.5899 25.0801C20.7699 24.8201 20.9499 24.8101 20.9499 24.8101C21.1973 24.7948 21.4456 24.8082 21.6899 24.8501Z" fill="#343434"/>
<path d="M22.3 30.3401C22.4021 30.1882 22.5158 30.0445 22.64 29.9101C22.7851 29.7569 22.946 29.6195 23.12 29.5001C23.2789 29.3727 23.4459 29.2558 23.62 29.1501C23.6858 29.106 23.7613 29.0786 23.84 29.0701C23.9116 29.0701 23.9803 29.0985 24.0309 29.1491C24.0815 29.1998 24.11 29.2685 24.11 29.3401C24.11 29.4701 24.17 29.3401 23.65 30.0301C23.57 30.1401 23.5 30.2901 23.39 30.4401C23.2843 30.5795 23.1672 30.71 23.04 30.8301C22.996 30.8755 22.9431 30.9114 22.8846 30.9355C22.8261 30.9596 22.7632 30.9714 22.7 30.9701C22.4 30.8801 22.14 30.5601 22.3 30.3401Z" fill="#343434"/>
<path d="M24.1498 20.2501C24.2298 20.4001 24.2898 20.5501 24.3498 20.6701C24.4098 20.7901 24.5998 21.0401 24.6498 21.1801C24.6676 21.2456 24.6676 21.3146 24.6498 21.3801C24.6498 21.45 24.6227 21.5172 24.5743 21.5676C24.5258 21.6179 24.4596 21.6475 24.3898 21.6501C24.3898 21.6501 24.3198 21.7401 23.6798 21.1201L23.4098 20.8201C23.3475 20.7165 23.2908 20.6097 23.2398 20.5001C23.1798 20.4001 23.1298 20.3001 23.0798 20.2001C23.0545 20.1324 23.0545 20.0578 23.0798 19.9901C23.1398 19.6701 23.3398 19.5601 23.7198 19.7001C23.7998 19.7701 23.8198 19.7001 23.8998 19.8301C23.9956 19.9623 24.0793 20.1028 24.1498 20.2501Z" fill="#343434"/>
</g>
<path d="M54.75 17.1592V30H52.6318V19.6729L49.4941 20.7363V18.9873L54.4951 17.1592H54.75ZM67.7754 28.3125V30H59.1973V28.5498L63.3633 24.0059C63.8203 23.4902 64.1807 23.0449 64.4443 22.6699C64.708 22.2949 64.8926 21.958 64.998 21.6592C65.1094 21.3545 65.165 21.0586 65.165 20.7715C65.165 20.3672 65.0889 20.0127 64.9365 19.708C64.79 19.3975 64.5732 19.1543 64.2861 18.9785C63.999 18.7969 63.6504 18.7061 63.2402 18.7061C62.7656 18.7061 62.3672 18.8086 62.0449 19.0137C61.7227 19.2188 61.4795 19.5029 61.3154 19.8662C61.1514 20.2236 61.0693 20.6338 61.0693 21.0967H58.9512C58.9512 20.3525 59.1211 19.6729 59.4609 19.0576C59.8008 18.4365 60.293 17.9443 60.9375 17.5811C61.582 17.2119 62.3584 17.0273 63.2666 17.0273C64.1221 17.0273 64.8486 17.1709 65.4463 17.458C66.0439 17.7451 66.498 18.1523 66.8086 18.6797C67.125 19.207 67.2832 19.8311 67.2832 20.5518C67.2832 20.9502 67.2188 21.3457 67.0898 21.7383C66.9609 22.1309 66.7764 22.5234 66.5361 22.916C66.3018 23.3027 66.0234 23.6924 65.7012 24.085C65.3789 24.4717 65.0244 24.8643 64.6377 25.2627L61.8691 28.3125H67.7754ZM71.6514 24.0498L69.9639 23.6367L70.6582 17.2031H77.5576V18.9961H72.416L72.0645 22.1338C72.2637 22.0166 72.5391 21.9023 72.8906 21.791C73.2422 21.6738 73.6436 21.6152 74.0947 21.6152C74.6982 21.6152 75.2373 21.7148 75.7119 21.9141C76.1924 22.1074 76.5996 22.3916 76.9336 22.7666C77.2676 23.1357 77.5225 23.5869 77.6982 24.1201C77.874 24.6475 77.9619 25.2422 77.9619 25.9043C77.9619 26.4961 77.874 27.0498 77.6982 27.5654C77.5283 28.0811 77.2705 28.5352 76.9248 28.9277C76.5791 29.3203 76.1426 29.6279 75.6152 29.8506C75.0938 30.0674 74.4756 30.1758 73.7607 30.1758C73.2275 30.1758 72.7148 30.0996 72.2227 29.9473C71.7363 29.7891 71.2998 29.5576 70.9131 29.2529C70.5264 28.9424 70.2158 28.5615 69.9814 28.1104C69.7471 27.6533 69.6123 27.1289 69.5771 26.5371H71.6514C71.7041 26.9531 71.8184 27.3076 71.9941 27.6006C72.1758 27.8877 72.416 28.1074 72.7148 28.2598C73.0137 28.4121 73.3594 28.4883 73.752 28.4883C74.1094 28.4883 74.417 28.4268 74.6748 28.3037C74.9326 28.1748 75.1465 27.9932 75.3164 27.7588C75.4922 27.5186 75.6211 27.2373 75.7031 26.915C75.791 26.5928 75.835 26.2354 75.835 25.8428C75.835 25.4678 75.7852 25.125 75.6855 24.8145C75.5918 24.5039 75.4482 24.2344 75.2549 24.0059C75.0674 23.7773 74.8301 23.6016 74.543 23.4785C74.2559 23.3496 73.9248 23.2852 73.5498 23.2852C73.0459 23.2852 72.6592 23.3584 72.3896 23.5049C72.126 23.6514 71.8799 23.833 71.6514 24.0498ZM86.3555 16.5V30H84.2461V16.5H86.3555ZM85.9863 24.8936L85.3008 24.8848C85.3066 24.2285 85.3975 23.6221 85.5732 23.0654C85.7549 22.5088 86.0068 22.0254 86.3291 21.6152C86.6572 21.1992 87.0498 20.8799 87.5068 20.6572C87.9639 20.4287 88.4707 20.3145 89.0273 20.3145C89.4961 20.3145 89.918 20.3789 90.293 20.5078C90.6738 20.6367 91.002 20.8447 91.2773 21.1318C91.5527 21.4131 91.7607 21.7822 91.9014 22.2393C92.0479 22.6904 92.1211 23.2412 92.1211 23.8916V30H89.9941V23.874C89.9941 23.417 89.9268 23.0537 89.792 22.7842C89.6631 22.5146 89.4727 22.3213 89.2207 22.2041C88.9688 22.0811 88.6611 22.0195 88.2979 22.0195C87.917 22.0195 87.5801 22.0957 87.2871 22.248C87 22.4004 86.7598 22.6084 86.5664 22.8721C86.373 23.1357 86.2266 23.4404 86.127 23.7861C86.0332 24.1318 85.9863 24.501 85.9863 24.8936ZM93.8613 25.3506V25.1484C93.8613 24.4629 93.9609 23.8271 94.1602 23.2412C94.3594 22.6494 94.6465 22.1367 95.0215 21.7031C95.4023 21.2637 95.8652 20.9238 96.4102 20.6836C96.9609 20.4375 97.582 20.3145 98.2734 20.3145C98.9707 20.3145 99.5918 20.4375 100.137 20.6836C100.688 20.9238 101.153 21.2637 101.534 21.7031C101.915 22.1367 102.205 22.6494 102.404 23.2412C102.604 23.8271 102.703 24.4629 102.703 25.1484V25.3506C102.703 26.0361 102.604 26.6719 102.404 27.2578C102.205 27.8438 101.915 28.3564 101.534 28.7959C101.153 29.2295 100.69 29.5693 100.146 29.8154C99.6006 30.0557 98.9824 30.1758 98.291 30.1758C97.5938 30.1758 96.9697 30.0557 96.4189 29.8154C95.874 29.5693 95.4111 29.2295 95.0303 28.7959C94.6494 28.3564 94.3594 27.8438 94.1602 27.2578C93.9609 26.6719 93.8613 26.0361 93.8613 25.3506ZM95.9795 25.1484V25.3506C95.9795 25.7783 96.0234 26.1826 96.1113 26.5635C96.1992 26.9443 96.3369 27.2783 96.5244 27.5654C96.7119 27.8525 96.9521 28.0781 97.2451 28.2422C97.5381 28.4062 97.8867 28.4883 98.291 28.4883C98.6836 28.4883 99.0234 28.4062 99.3105 28.2422C99.6035 28.0781 99.8438 27.8525 100.031 27.5654C100.219 27.2783 100.356 26.9443 100.444 26.5635C100.538 26.1826 100.585 25.7783 100.585 25.3506V25.1484C100.585 24.7266 100.538 24.3281 100.444 23.9531C100.356 23.5723 100.216 23.2354 100.022 22.9424C99.835 22.6494 99.5947 22.4209 99.3018 22.2568C99.0146 22.0869 98.6719 22.002 98.2734 22.002C97.875 22.002 97.5293 22.0869 97.2363 22.2568C96.9492 22.4209 96.7119 22.6494 96.5244 22.9424C96.3369 23.2354 96.1992 23.5723 96.1113 23.9531C96.0234 24.3281 95.9795 24.7266 95.9795 25.1484ZM110.2 27.7588V20.4902H112.327V30H110.323L110.2 27.7588ZM110.499 25.7812L111.211 25.7637C111.211 26.4023 111.141 26.9912 111 27.5303C110.859 28.0635 110.643 28.5293 110.35 28.9277C110.057 29.3203 109.682 29.6279 109.225 29.8506C108.768 30.0674 108.22 30.1758 107.581 30.1758C107.118 30.1758 106.693 30.1084 106.307 29.9736C105.92 29.8389 105.586 29.6309 105.305 29.3496C105.029 29.0684 104.815 28.7021 104.663 28.251C104.511 27.7998 104.435 27.2607 104.435 26.6338V20.4902H106.553V26.6514C106.553 26.9971 106.594 27.2871 106.676 27.5215C106.758 27.75 106.869 27.9346 107.01 28.0752C107.15 28.2158 107.314 28.3154 107.502 28.374C107.689 28.4326 107.889 28.4619 108.1 28.4619C108.703 28.4619 109.178 28.3447 109.523 28.1104C109.875 27.8701 110.124 27.5479 110.271 27.1436C110.423 26.7393 110.499 26.2852 110.499 25.7812ZM116.625 22.3008V30H114.507V20.4902H116.528L116.625 22.3008ZM119.534 20.4287L119.517 22.3975C119.388 22.374 119.247 22.3564 119.095 22.3447C118.948 22.333 118.802 22.3271 118.655 22.3271C118.292 22.3271 117.973 22.3799 117.697 22.4854C117.422 22.585 117.19 22.7314 117.003 22.9248C116.821 23.1123 116.681 23.3408 116.581 23.6104C116.481 23.8799 116.423 24.1816 116.405 24.5156L115.922 24.5508C115.922 23.9531 115.98 23.3994 116.098 22.8896C116.215 22.3799 116.391 21.9316 116.625 21.5449C116.865 21.1582 117.164 20.8564 117.521 20.6396C117.885 20.4229 118.304 20.3145 118.778 20.3145C118.907 20.3145 119.045 20.3262 119.191 20.3496C119.344 20.373 119.458 20.3994 119.534 20.4287ZM126.196 27.4248C126.196 27.2139 126.144 27.0234 126.038 26.8535C125.933 26.6777 125.73 26.5195 125.432 26.3789C125.139 26.2383 124.705 26.1094 124.131 25.9922C123.627 25.8809 123.164 25.749 122.742 25.5967C122.326 25.4385 121.969 25.248 121.67 25.0254C121.371 24.8027 121.14 24.5391 120.976 24.2344C120.812 23.9297 120.729 23.5781 120.729 23.1797C120.729 22.793 120.814 22.4268 120.984 22.0811C121.154 21.7354 121.397 21.4307 121.714 21.167C122.03 20.9033 122.414 20.6953 122.865 20.543C123.322 20.3906 123.832 20.3145 124.395 20.3145C125.191 20.3145 125.874 20.4492 126.442 20.7188C127.017 20.9824 127.456 21.3428 127.761 21.7998C128.065 22.251 128.218 22.7607 128.218 23.3291H126.1C126.1 23.0771 126.035 22.8428 125.906 22.626C125.783 22.4033 125.596 22.2246 125.344 22.0898C125.092 21.9492 124.775 21.8789 124.395 21.8789C124.031 21.8789 123.729 21.9375 123.489 22.0547C123.255 22.166 123.079 22.3125 122.962 22.4941C122.851 22.6758 122.795 22.875 122.795 23.0918C122.795 23.25 122.824 23.3936 122.883 23.5225C122.947 23.6455 123.053 23.7598 123.199 23.8652C123.346 23.9648 123.545 24.0586 123.797 24.1465C124.055 24.2344 124.377 24.3193 124.764 24.4014C125.49 24.5537 126.114 24.75 126.636 24.9902C127.163 25.2246 127.567 25.5293 127.849 25.9043C128.13 26.2734 128.271 26.7422 128.271 27.3105C128.271 27.7324 128.18 28.1191 127.998 28.4707C127.822 28.8164 127.564 29.1182 127.225 29.376C126.885 29.6279 126.478 29.8242 126.003 29.9648C125.534 30.1055 125.007 30.1758 124.421 30.1758C123.56 30.1758 122.83 30.0234 122.232 29.7188C121.635 29.4082 121.181 29.0127 120.87 28.5322C120.565 28.0459 120.413 27.542 120.413 27.0205H122.461C122.484 27.4131 122.593 27.7266 122.786 27.9609C122.985 28.1895 123.231 28.3564 123.524 28.4619C123.823 28.5615 124.131 28.6113 124.447 28.6113C124.828 28.6113 125.147 28.5615 125.405 28.4619C125.663 28.3564 125.859 28.2158 125.994 28.04C126.129 27.8584 126.196 27.6533 126.196 27.4248Z" fill="#343434"/>
<defs>
<clipPath id="clip0_5099_458">
<rect width="24" height="24" fill="white" transform="translate(16 11.5)"/>
</clipPath>
</defs>
</svg>
