<svg width="135" height="47" viewBox="0 0 135 47" fill="none" xmlns="http://www.w3.org/2000/svg">
<rect width="135" height="47" rx="23.5" fill="#EFF3F7"/>
<g clip-path="url(#clip0_5099_218)">
<path d="M34.8299 18.7499C34.5422 18.4938 34.2383 18.2566 33.9199 18.0399L33.9999 17.9699C34.0599 17.8999 34.1799 17.8399 34.2699 17.7499C34.3799 17.6254 34.4739 17.4877 34.5499 17.3399C34.5999 17.2399 34.6399 17.1399 34.6799 17.0499L35.2399 17.3499C35.3559 17.4322 35.4798 17.5025 35.6099 17.5599C35.8099 17.6199 35.9399 17.5599 35.9999 17.5599C36.0599 17.5599 36.1499 17.4199 36.1299 17.2799C36.1287 17.2148 36.1094 17.1512 36.074 17.0964C36.0387 17.0417 35.9888 16.9979 35.9299 16.9699C35.9299 16.9099 35.7899 16.7899 35.7699 16.7599L35.2599 16.1799C35.0672 16.0099 34.8634 15.8529 34.6499 15.7099C34.4799 15.6099 34.2999 15.5599 34.1299 15.4799C33.5599 15.2499 33.4299 15.1399 33.2299 15.2199C33.0299 15.2999 32.9299 15.4799 33.2299 15.7899C33.3829 15.9632 33.5466 16.1269 33.7199 16.2799C33.8399 16.3799 33.9399 16.4999 34.0499 16.6099L33.9399 16.6699C33.8099 16.7899 33.6299 16.8599 33.4999 16.9899C33.3727 17.1183 33.268 17.267 33.1899 17.4299V17.5899C31.8289 16.8605 30.3368 16.4085 28.7999 16.2599V16.0999C28.81 15.9768 28.81 15.8531 28.7999 15.7299C28.8141 15.6103 28.8141 15.4895 28.7999 15.3699C28.7999 15.1399 28.6899 14.8899 28.6099 14.5699C29.1799 14.5699 29.7499 14.4699 30.3299 14.3799C30.4077 14.3723 30.4795 14.3346 30.5299 14.2748C30.5804 14.215 30.6055 14.1379 30.5999 14.0599C30.5961 14.0205 30.5846 13.9821 30.5659 13.9471C30.5473 13.9122 30.5219 13.8812 30.4912 13.8561C30.4605 13.831 30.4252 13.8122 30.3872 13.8009C30.3492 13.7895 30.3093 13.7858 30.2699 13.7899C29.5106 13.835 28.7492 13.835 27.9899 13.7899C27.5028 13.7327 27.0212 13.6357 26.5499 13.4999C26.3924 13.4532 26.2461 13.375 26.1199 13.2699C26.0199 13.1999 25.8799 13.1499 25.9199 13.0399C25.9943 12.9213 26.1022 12.8274 26.2299 12.7699C26.3153 12.7193 26.411 12.6885 26.5099 12.6799C27.1599 12.6299 27.8999 12.5299 28.6099 12.4899C28.8964 12.4753 29.1834 12.4753 29.4699 12.4899C29.743 12.4744 30.0168 12.4744 30.2899 12.4899C30.4247 12.5044 30.5545 12.5488 30.6699 12.6199C30.7585 12.6809 30.8195 12.7743 30.8399 12.8799C30.875 13.0211 30.875 13.1688 30.8399 13.3099C30.8278 13.3533 30.8244 13.3986 30.8299 13.4432C30.8355 13.4879 30.8498 13.531 30.8722 13.5701C30.8945 13.6091 30.9243 13.6434 30.96 13.6708C30.9957 13.6983 31.0364 13.7184 31.0799 13.7299C31.1661 13.7547 31.2586 13.7445 31.3372 13.7014C31.4159 13.6583 31.4744 13.5859 31.4999 13.4999C31.585 13.1992 31.585 12.8807 31.4999 12.5799C31.4384 12.3482 31.3054 12.1417 31.1199 11.9899C30.9199 11.8339 30.6876 11.7245 30.4399 11.6699C30.1397 11.609 29.8356 11.5689 29.5299 11.5499C29.1116 11.5035 28.6905 11.4868 28.2699 11.4999C27.6499 11.4999 27.0199 11.5499 26.4499 11.5599C26.1114 11.5777 25.7852 11.6922 25.5099 11.8899C25.2133 12.0855 24.9803 12.3636 24.8399 12.6899C24.7679 12.8959 24.756 13.1181 24.8056 13.3306C24.8552 13.5431 24.9642 13.7371 25.1199 13.8899C25.4614 14.2092 25.889 14.4213 26.3499 14.4999C26.8637 14.5664 27.3819 14.5932 27.8999 14.5799C27.8299 14.8799 27.7699 15.1199 27.7299 15.3399C27.7212 15.4631 27.7212 15.5868 27.7299 15.7099V16.0799C27.7266 16.1031 27.7266 16.1267 27.7299 16.1499C26.8674 16.1137 26.0034 16.1606 25.1499 16.2899C23.6384 16.5669 22.2361 17.2661 21.1053 18.3067C19.9745 19.3472 19.1614 20.6866 18.7599 22.1699C17.8486 25.0683 18.1181 28.2092 19.5099 30.9099C21.2299 34.1299 25.6199 35.8199 29.6699 35.3899C39.6199 34.3799 39.1099 22.6099 34.8299 18.7499ZM34.4599 32.6599C33.4599 33.8699 30.9899 34.3999 27.9999 34.5599C25.0099 34.7199 23.2399 33.1599 21.2299 31.5599C20.9482 31.2353 20.7096 30.8756 20.5199 30.4899C19.2965 28.0442 19.0707 25.219 19.8899 22.6099C20.2718 21.3315 20.9581 20.1649 21.8899 19.2099C22.8637 18.3049 24.0617 17.6766 25.3599 17.3899C26.9878 17.1026 28.6565 17.14 30.2699 17.4999C31.7089 17.8864 33.0647 18.5338 34.2699 19.4099C35.8463 21.2985 36.7441 23.661 36.8199 26.1199C36.8799 28.7499 35.9999 31.3799 34.4599 32.6599Z" fill="#003366"/>
<path d="M28.1998 33.25C28.1998 33.25 28.1398 31.79 27.7898 31.79C27.6798 31.79 27.5998 31.85 27.4998 31.97C27.4243 32.1559 27.3738 32.3509 27.3498 32.55C27.3051 32.7128 27.2849 32.8813 27.2898 33.05C27.2944 33.2116 27.3144 33.3723 27.3498 33.53C27.4476 33.6341 27.5783 33.7012 27.7198 33.72C28.1998 33.72 28.1898 33.4 28.1998 33.25Z" fill="#343434"/>
<path d="M28.1998 18.5C28.1998 18.5 28.1398 19.96 27.7898 19.96C27.6798 19.96 27.5998 19.96 27.4998 19.78C27.4231 19.5946 27.3727 19.3994 27.3498 19.2C27.3049 19.0407 27.2847 18.8754 27.2898 18.71C27.295 18.5452 27.3151 18.3812 27.3498 18.22C27.4476 18.116 27.5783 18.0488 27.7198 18.03C28.1998 18.02 28.1898 18.35 28.1998 18.5Z" fill="#343434"/>
<path d="M34.5498 25.0199C34.2098 25.0899 33.9098 25.2399 33.5498 25.2999C33.4782 25.2999 33.4095 25.3284 33.3589 25.379C33.3082 25.4296 33.2798 25.4983 33.2798 25.5699C33.2798 25.6415 33.3082 25.7102 33.3589 25.7608C33.4095 25.8115 33.4782 25.8399 33.5498 25.8399C33.9131 25.9004 34.282 25.9205 34.6498 25.8999C34.8498 25.8999 35.0598 25.8399 35.2798 25.8299L35.5798 25.7699C35.6456 25.7019 35.6872 25.6141 35.698 25.5201C35.7089 25.4261 35.6884 25.3311 35.6398 25.2499C35.6038 25.1808 35.5528 25.1207 35.4905 25.074C35.4282 25.0272 35.3562 24.9951 35.2798 24.9799C35.0357 24.9643 34.7907 24.9778 34.5498 25.0199Z" fill="#343434"/>
<path d="M33.65 30.79C33.5446 30.6406 33.4311 30.497 33.31 30.36C33.1636 30.2021 33.003 30.0582 32.83 29.93C32.6711 29.8027 32.504 29.6858 32.33 29.58C32.2642 29.536 32.1887 29.5085 32.11 29.5C32.0384 29.5 31.9697 29.5284 31.9191 29.5791C31.8684 29.6297 31.84 29.6984 31.84 29.77C31.84 29.9 31.78 29.77 32.3 30.46C32.38 30.57 32.45 30.72 32.56 30.87C32.6657 31.0095 32.7827 31.1399 32.91 31.26C32.954 31.3055 33.0069 31.3414 33.0654 31.3654C33.1239 31.3895 33.1867 31.4013 33.25 31.4C33.55 31.33 33.81 31.01 33.65 30.79Z" fill="#343434"/>
<path d="M32.0798 20.2501C31.9998 20.4001 31.9398 20.5501 31.8798 20.6701C31.8198 20.7901 31.6298 21.0401 31.5798 21.1801C31.5497 21.2427 31.5327 21.3107 31.5298 21.3801C31.5298 21.4517 31.5582 21.5204 31.6089 21.571C31.6595 21.6216 31.7282 21.6501 31.7998 21.6501C31.7998 21.6501 31.8598 21.7401 32.4998 21.1201L32.7798 20.8201C32.8592 20.7177 32.9327 20.6109 32.9998 20.5001C33.0598 20.4001 33.1098 20.3001 33.1598 20.2001C33.175 20.1672 33.1829 20.1314 33.1829 20.0951C33.1829 20.0588 33.175 20.023 33.1598 19.9901C33.0998 19.6701 32.9098 19.5601 32.5198 19.7001C32.4398 19.7701 32.4198 19.7001 32.3498 19.8301C32.2474 19.9617 32.157 20.1023 32.0798 20.2501Z" fill="#343434"/>
<path d="M21.6899 24.8501C22.0199 24.9201 22.3199 25.0701 22.6899 25.1301C22.7615 25.1301 22.8302 25.1585 22.8808 25.2091C22.9314 25.2598 22.9599 25.3285 22.9599 25.4001C22.9599 25.4717 22.9314 25.5403 22.8808 25.591C22.8302 25.6416 22.7615 25.6701 22.6899 25.6701C22.327 25.7345 21.9576 25.7547 21.5899 25.7301C21.3799 25.7301 21.1699 25.6701 20.9499 25.6601L20.6499 25.6001C20.5841 25.5321 20.5425 25.4443 20.5316 25.3502C20.5208 25.2562 20.5413 25.1613 20.5899 25.0801C20.7699 24.8201 20.9499 24.8101 20.9499 24.8101C21.1973 24.7948 21.4456 24.8082 21.6899 24.8501Z" fill="#343434"/>
<path d="M22.3 30.3401C22.4021 30.1882 22.5158 30.0445 22.64 29.9101C22.7851 29.7569 22.946 29.6195 23.12 29.5001C23.2789 29.3727 23.4459 29.2558 23.62 29.1501C23.6858 29.106 23.7613 29.0786 23.84 29.0701C23.9116 29.0701 23.9803 29.0985 24.0309 29.1491C24.0815 29.1998 24.11 29.2685 24.11 29.3401C24.11 29.4701 24.17 29.3401 23.65 30.0301C23.57 30.1401 23.5 30.2901 23.39 30.4401C23.2843 30.5795 23.1672 30.71 23.04 30.8301C22.996 30.8755 22.9431 30.9114 22.8846 30.9355C22.8261 30.9596 22.7632 30.9714 22.7 30.9701C22.4 30.8801 22.14 30.5601 22.3 30.3401Z" fill="#343434"/>
<path d="M24.1498 20.2501C24.2298 20.4001 24.2898 20.5501 24.3498 20.6701C24.4098 20.7901 24.5998 21.0401 24.6498 21.1801C24.6676 21.2456 24.6676 21.3146 24.6498 21.3801C24.6498 21.45 24.6227 21.5172 24.5743 21.5676C24.5258 21.6179 24.4596 21.6475 24.3898 21.6501C24.3898 21.6501 24.3198 21.7401 23.6798 21.1201L23.4098 20.8201C23.3475 20.7165 23.2908 20.6097 23.2398 20.5001C23.1798 20.4001 23.1298 20.3001 23.0798 20.2001C23.0545 20.1324 23.0545 20.0578 23.0798 19.9901C23.1398 19.6701 23.3398 19.5601 23.7198 19.7001C23.7998 19.7701 23.8198 19.7001 23.8998 19.8301C23.9956 19.9623 24.0793 20.1028 24.1498 20.2501Z" fill="#343434"/>
</g>
<path d="M55.3652 17.124H55.6289V18.8555H55.4795C54.7236 18.8555 54.0703 18.9727 53.5195 19.207C52.9746 19.4414 52.5264 19.7637 52.1748 20.1738C51.8232 20.584 51.5596 21.0645 51.3838 21.6152C51.2139 22.1602 51.1289 22.7402 51.1289 23.3555V25.3682C51.1289 25.8779 51.1846 26.3291 51.2959 26.7217C51.4072 27.1084 51.5625 27.4336 51.7617 27.6973C51.9668 27.9551 52.2012 28.1514 52.4648 28.2861C52.7285 28.4209 53.0127 28.4883 53.3174 28.4883C53.6338 28.4883 53.9209 28.4238 54.1787 28.2949C54.4365 28.1602 54.6562 27.9756 54.8379 27.7412C55.0195 27.5068 55.1572 27.2285 55.251 26.9062C55.3447 26.584 55.3916 26.2324 55.3916 25.8516C55.3916 25.4883 55.3447 25.1484 55.251 24.832C55.1631 24.5098 55.0312 24.2285 54.8555 23.9883C54.6797 23.7422 54.46 23.5518 54.1963 23.417C53.9385 23.2764 53.6396 23.2061 53.2998 23.2061C52.8779 23.2061 52.4941 23.3057 52.1484 23.5049C51.8086 23.7041 51.5332 23.9648 51.3223 24.2871C51.1172 24.6035 51.0059 24.9404 50.9883 25.2979L50.1797 25.0342C50.2266 24.4893 50.3467 24 50.54 23.5664C50.7393 23.1328 51 22.7637 51.3223 22.459C51.6445 22.1543 52.0166 21.9229 52.4385 21.7646C52.8662 21.6006 53.335 21.5186 53.8447 21.5186C54.4658 21.5186 55.0049 21.6357 55.4619 21.8701C55.9189 22.1045 56.2969 22.4238 56.5957 22.8281C56.9004 23.2266 57.126 23.6836 57.2725 24.1992C57.4248 24.709 57.501 25.2422 57.501 25.7988C57.501 26.4141 57.4072 26.9883 57.2197 27.5215C57.0322 28.0488 56.7568 28.5117 56.3936 28.9102C56.0361 29.3086 55.5996 29.6191 55.084 29.8418C54.5742 30.0645 53.9941 30.1758 53.3438 30.1758C52.6582 30.1758 52.0459 30.0439 51.5068 29.7803C50.9736 29.5166 50.5195 29.1533 50.1445 28.6904C49.7754 28.2275 49.4941 27.6943 49.3008 27.0908C49.1074 26.4873 49.0107 25.8486 49.0107 25.1748V24.2959C49.0107 23.3232 49.1338 22.4062 49.3799 21.5449C49.626 20.6777 50.0039 19.9131 50.5137 19.251C51.0293 18.5889 51.6885 18.0703 52.4912 17.6953C53.2939 17.3145 54.252 17.124 55.3652 17.124ZM67.5381 22.5293V24.6211C67.5381 25.623 67.4385 26.4785 67.2393 27.1875C67.0459 27.8906 66.7646 28.4619 66.3955 28.9014C66.0264 29.3408 65.584 29.6631 65.0684 29.8682C64.5586 30.0732 63.9873 30.1758 63.3545 30.1758C62.8506 30.1758 62.3818 30.1113 61.9482 29.9824C61.5205 29.8535 61.1338 29.6514 60.7881 29.376C60.4424 29.1006 60.1465 28.7461 59.9004 28.3125C59.6602 27.873 59.4727 27.3486 59.3379 26.7393C59.209 26.1299 59.1445 25.4238 59.1445 24.6211V22.5293C59.1445 21.5215 59.2441 20.6719 59.4434 19.9805C59.6426 19.2832 59.9268 18.7178 60.2959 18.2842C60.665 17.8447 61.1045 17.5254 61.6143 17.3262C62.1299 17.127 62.7041 17.0273 63.3369 17.0273C63.8467 17.0273 64.3154 17.0918 64.7432 17.2207C65.1768 17.3438 65.5635 17.54 65.9033 17.8096C66.249 18.0791 66.542 18.4307 66.7822 18.8643C67.0283 19.292 67.2158 19.8105 67.3447 20.4199C67.4736 21.0234 67.5381 21.7266 67.5381 22.5293ZM65.4199 24.9199V22.2129C65.4199 21.7031 65.3906 21.2549 65.332 20.8682C65.2734 20.4756 65.1855 20.1445 65.0684 19.875C64.957 19.5996 64.8164 19.377 64.6465 19.207C64.4766 19.0312 64.2832 18.9053 64.0664 18.8291C63.8496 18.7471 63.6064 18.7061 63.3369 18.7061C63.0088 18.7061 62.7158 18.7705 62.458 18.8994C62.2002 19.0225 61.9834 19.2217 61.8076 19.4971C61.6318 19.7725 61.4971 20.1357 61.4033 20.5869C61.3154 21.0322 61.2715 21.5742 61.2715 22.2129V24.9199C61.2715 25.4355 61.3008 25.8896 61.3594 26.2822C61.418 26.6748 61.5059 27.0117 61.623 27.293C61.7402 27.5684 61.8809 27.7969 62.0449 27.9785C62.2148 28.1543 62.4082 28.2832 62.625 28.3652C62.8477 28.4473 63.0908 28.4883 63.3545 28.4883C63.6885 28.4883 63.9844 28.4238 64.2422 28.2949C64.5 28.166 64.7168 27.9609 64.8926 27.6797C65.0684 27.3926 65.2002 27.0205 65.2881 26.5635C65.376 26.1064 65.4199 25.5586 65.4199 24.9199ZM73.8135 23.6895V25.377H69.1641V23.6895H73.8135ZM77.7598 16.5V30H75.6504V16.5H77.7598ZM77.3906 24.8936L76.7051 24.8848C76.7109 24.2285 76.8018 23.6221 76.9775 23.0654C77.1592 22.5088 77.4111 22.0254 77.7334 21.6152C78.0615 21.1992 78.4541 20.8799 78.9111 20.6572C79.3682 20.4287 79.875 20.3145 80.4316 20.3145C80.9004 20.3145 81.3223 20.3789 81.6973 20.5078C82.0781 20.6367 82.4062 20.8447 82.6816 21.1318C82.957 21.4131 83.165 21.7822 83.3057 22.2393C83.4521 22.6904 83.5254 23.2412 83.5254 23.8916V30H81.3984V23.874C81.3984 23.417 81.3311 23.0537 81.1963 22.7842C81.0674 22.5146 80.877 22.3213 80.625 22.2041C80.373 22.0811 80.0654 22.0195 79.7021 22.0195C79.3213 22.0195 78.9844 22.0957 78.6914 22.248C78.4043 22.4004 78.1641 22.6084 77.9707 22.8721C77.7773 23.1357 77.6309 23.4404 77.5312 23.7861C77.4375 24.1318 77.3906 24.501 77.3906 24.8936ZM85.2656 25.3506V25.1484C85.2656 24.4629 85.3652 23.8271 85.5645 23.2412C85.7637 22.6494 86.0508 22.1367 86.4258 21.7031C86.8066 21.2637 87.2695 20.9238 87.8145 20.6836C88.3652 20.4375 88.9863 20.3145 89.6777 20.3145C90.375 20.3145 90.9961 20.4375 91.541 20.6836C92.0918 20.9238 92.5576 21.2637 92.9385 21.7031C93.3193 22.1367 93.6094 22.6494 93.8086 23.2412C94.0078 23.8271 94.1074 24.4629 94.1074 25.1484V25.3506C94.1074 26.0361 94.0078 26.6719 93.8086 27.2578C93.6094 27.8438 93.3193 28.3564 92.9385 28.7959C92.5576 29.2295 92.0947 29.5693 91.5498 29.8154C91.0049 30.0557 90.3867 30.1758 89.6953 30.1758C88.998 30.1758 88.374 30.0557 87.8232 29.8154C87.2783 29.5693 86.8154 29.2295 86.4346 28.7959C86.0537 28.3564 85.7637 27.8438 85.5645 27.2578C85.3652 26.6719 85.2656 26.0361 85.2656 25.3506ZM87.3838 25.1484V25.3506C87.3838 25.7783 87.4277 26.1826 87.5156 26.5635C87.6035 26.9443 87.7412 27.2783 87.9287 27.5654C88.1162 27.8525 88.3564 28.0781 88.6494 28.2422C88.9424 28.4062 89.291 28.4883 89.6953 28.4883C90.0879 28.4883 90.4277 28.4062 90.7148 28.2422C91.0078 28.0781 91.248 27.8525 91.4355 27.5654C91.623 27.2783 91.7607 26.9443 91.8486 26.5635C91.9424 26.1826 91.9893 25.7783 91.9893 25.3506V25.1484C91.9893 24.7266 91.9424 24.3281 91.8486 23.9531C91.7607 23.5723 91.6201 23.2354 91.4268 22.9424C91.2393 22.6494 90.999 22.4209 90.7061 22.2568C90.4189 22.0869 90.0762 22.002 89.6777 22.002C89.2793 22.002 88.9336 22.0869 88.6406 22.2568C88.3535 22.4209 88.1162 22.6494 87.9287 22.9424C87.7412 23.2354 87.6035 23.5723 87.5156 23.9531C87.4277 24.3281 87.3838 24.7266 87.3838 25.1484ZM101.604 27.7588V20.4902H103.731V30H101.728L101.604 27.7588ZM101.903 25.7812L102.615 25.7637C102.615 26.4023 102.545 26.9912 102.404 27.5303C102.264 28.0635 102.047 28.5293 101.754 28.9277C101.461 29.3203 101.086 29.6279 100.629 29.8506C100.172 30.0674 99.624 30.1758 98.9854 30.1758C98.5225 30.1758 98.0977 30.1084 97.7109 29.9736C97.3242 29.8389 96.9902 29.6309 96.709 29.3496C96.4336 29.0684 96.2197 28.7021 96.0674 28.251C95.915 27.7998 95.8389 27.2607 95.8389 26.6338V20.4902H97.957V26.6514C97.957 26.9971 97.998 27.2871 98.0801 27.5215C98.1621 27.75 98.2734 27.9346 98.4141 28.0752C98.5547 28.2158 98.7188 28.3154 98.9062 28.374C99.0938 28.4326 99.293 28.4619 99.5039 28.4619C100.107 28.4619 100.582 28.3447 100.928 28.1104C101.279 27.8701 101.528 27.5479 101.675 27.1436C101.827 26.7393 101.903 26.2852 101.903 25.7812ZM108.029 22.3008V30H105.911V20.4902H107.933L108.029 22.3008ZM110.938 20.4287L110.921 22.3975C110.792 22.374 110.651 22.3564 110.499 22.3447C110.353 22.333 110.206 22.3271 110.06 22.3271C109.696 22.3271 109.377 22.3799 109.102 22.4854C108.826 22.585 108.595 22.7314 108.407 22.9248C108.226 23.1123 108.085 23.3408 107.985 23.6104C107.886 23.8799 107.827 24.1816 107.81 24.5156L107.326 24.5508C107.326 23.9531 107.385 23.3994 107.502 22.8896C107.619 22.3799 107.795 21.9316 108.029 21.5449C108.27 21.1582 108.568 20.8564 108.926 20.6396C109.289 20.4229 109.708 20.3145 110.183 20.3145C110.312 20.3145 110.449 20.3262 110.596 20.3496C110.748 20.373 110.862 20.3994 110.938 20.4287Z" fill="#343434"/>
<defs>
<clipPath id="clip0_5099_218">
<rect width="24" height="24" fill="white" transform="translate(16 11.5)"/>
</clipPath>
</defs>
</svg>
