<svg width="149" height="47" viewBox="0 0 149 47" fill="none" xmlns="http://www.w3.org/2000/svg">
<rect width="149" height="47" rx="23.5" fill="#EFF3F7"/>
<path d="M27.2875 13.7067C27.1675 13.3867 27.0875 13.4367 25.1675 11.8467C25.0941 11.7975 25.0047 11.7779 24.9174 11.7918C24.8301 11.8058 24.7513 11.8522 24.6968 11.9219C24.6424 11.9915 24.6163 12.0792 24.6239 12.1673C24.6314 12.2554 24.672 12.3374 24.7375 12.3967C27.1675 14.5067 26.5575 13.6767 26.5175 15.1267C26.5387 16.4978 26.4551 17.8684 26.2675 19.2267C26.1939 19.6896 26.0903 20.1473 25.9575 20.5967C25.8993 20.6743 25.8321 20.7448 25.7575 20.8067C25.7575 20.8067 25.6575 20.8067 25.5975 20.8067C24.6281 20.8565 23.6569 20.8565 22.6875 20.8067C21.3938 20.7895 20.1019 20.7027 18.8175 20.5467C19.3775 18.7067 19.3475 16.2967 19.5275 12.6567C20.7575 12.4267 22.8275 12.1767 23.2975 12.1267C23.3797 12.1095 23.4517 12.0603 23.4977 11.99C23.5436 11.9197 23.5597 11.834 23.5425 11.7517C23.5253 11.6695 23.4761 11.5975 23.4057 11.5516C23.3354 11.5056 23.2497 11.4895 23.1675 11.5067C21.4475 11.6467 22.1675 11.5767 19.8275 11.8267C18.4775 12.0367 18.7675 11.6467 18.2375 17.6267C18.1431 18.711 17.8904 19.7757 17.4875 20.7867C17.4408 20.8723 17.416 20.9681 17.4153 21.0656C17.4146 21.1631 17.4381 21.2592 17.4837 21.3454C17.5293 21.4315 17.5955 21.5051 17.6764 21.5594C17.7573 21.6138 17.8505 21.6472 17.9475 21.6567C19.523 21.8613 21.1089 21.9748 22.6975 21.9967C26.3175 21.9367 27.1175 22.6067 27.3575 18.2767C27.3575 14.2467 27.4875 14.0967 27.2875 13.7067Z" fill="#003366"/>
<path d="M39.3375 14.2467C39.3375 13.4067 38.9475 13.3867 37.0575 11.8467C37.0009 11.8101 36.9349 11.7907 36.8675 11.7907C36.8001 11.7907 36.7341 11.8101 36.6775 11.8467C31.4075 11.6867 30.8975 11.7867 30.6775 12.3567C30.4575 12.9267 30.2875 17.4167 29.8775 19.3567C29.5275 21.0067 29.1775 20.9567 29.4075 21.4067C29.4515 21.4953 29.5182 21.5706 29.6007 21.6251C29.6833 21.6795 29.7788 21.7112 29.8775 21.7167C30.8775 21.8167 31.7875 21.9267 32.6975 21.9867C33.6075 22.0467 36.6975 22.0967 37.4075 21.9867C38.8675 21.8267 38.9875 20.9067 39.1775 19.4067C39.3294 17.9987 39.3662 16.5807 39.2875 15.1667C39.2875 14.9267 39.3475 14.5567 39.3375 14.2467ZM38.5275 14.3667C38.5275 14.6467 38.4575 14.9467 38.4475 15.1267C38.4998 16.8419 38.3487 18.5571 37.9975 20.2367C37.991 20.3551 37.958 20.4705 37.9009 20.5743C37.8438 20.6782 37.764 20.7679 37.6675 20.8367C37.4775 20.9767 33.0275 20.7767 32.7875 20.7567C32.1175 20.7067 31.4575 20.6367 30.7875 20.5667C31.3675 18.6867 31.3375 16.2467 31.5175 12.7067C33.2253 12.4904 34.9464 12.3968 36.6675 12.4267L37.8675 13.4267C38.4775 14.0167 38.5575 13.8867 38.5275 14.3667Z" fill="#003366"/>
<path d="M26.0175 26.4168C24.6675 25.3168 24.6075 25.1768 24.3375 25.3268C22.4575 25.2668 19.1175 25.0968 18.5275 25.5568C17.9375 26.0168 18.0875 32.5068 17.0775 34.2968C17.0285 34.3826 17.0019 34.4794 17.0001 34.5783C16.9983 34.6771 17.0213 34.7748 17.0671 34.8624C17.1129 34.95 17.18 35.0247 17.2622 35.0797C17.3444 35.1346 17.4391 35.168 17.5375 35.1768C19.1132 35.3783 20.6991 35.4885 22.2875 35.5068C25.9175 35.4368 26.6875 36.1168 26.9475 31.7968C26.9475 26.5668 27.2875 27.5068 26.0175 26.4168ZM26.1675 27.8768C26.1675 28.1568 26.0975 28.4568 26.0875 28.6368C26.1398 30.3519 25.9887 32.0672 25.6375 33.7468C25.5675 34.0368 25.6375 34.1068 25.3075 34.3468C24.9775 34.5868 20.6575 34.2868 20.4275 34.2668C19.7575 34.2168 19.0975 34.1468 18.4275 34.0768C18.9875 32.2568 18.9575 30.1468 19.1575 26.2168C20.875 25.9973 22.6065 25.9071 24.3375 25.9468L25.5375 26.9468C26.1675 27.5068 26.2175 27.3968 26.1675 27.8768Z" fill="#003366"/>
<path d="M37.9375 26.4168C36.5875 25.3168 36.5375 25.1768 36.2675 25.3268C34.3975 25.2668 31.0375 25.0968 30.4575 25.5568C29.8775 26.0168 30.0475 32.3868 29.0075 34.2968C28.9587 34.3819 28.9319 34.4779 28.9296 34.576C28.9273 34.6741 28.9495 34.7713 28.9941 34.8586C29.0388 34.946 29.1046 35.0209 29.1855 35.0764C29.2664 35.132 29.3599 35.1665 29.4575 35.1768C31.0367 35.3749 32.626 35.4818 34.2175 35.4968C37.8475 35.4268 38.6175 36.1068 38.8675 31.7868C38.8675 26.5668 39.2175 27.5068 37.9375 26.4168ZM38.1675 27.8768C38.1675 28.1568 38.0875 28.4568 38.0875 28.6368C38.1408 30.3524 37.9864 32.0682 37.6275 33.7468C37.6233 33.8656 37.5912 33.9818 37.5339 34.086C37.4766 34.1902 37.3956 34.2795 37.2975 34.3468C37.1175 34.4868 32.6575 34.2868 32.4175 34.2668C31.7575 34.2168 31.0975 34.1468 30.4175 34.0768C30.9875 32.2568 30.9575 30.0768 31.1575 26.2168C32.8716 25.9971 34.5998 25.9068 36.3275 25.9468L37.5275 26.9468C38.0575 27.5068 38.1675 27.3968 38.1675 27.8768Z" fill="#003366"/>
<path fill-rule="evenodd" clip-rule="evenodd" d="M22.5674 15.5069H23.5074C24.9974 15.3269 25.1674 15.3869 25.1674 15.1669C25.1674 14.9469 23.7974 14.7769 23.2574 14.7769H22.2574C20.5874 14.9369 20.6074 14.9869 20.5974 15.1169C20.6674 15.4369 22.2374 15.5069 22.5674 15.5069Z" fill="#343434"/>
<path fill-rule="evenodd" clip-rule="evenodd" d="M22.3975 18.1867H23.3375C24.8375 18.0867 24.9875 18.1867 25.0375 17.9267C25.0875 17.6667 23.6775 17.5067 23.1675 17.5067C22.8345 17.4851 22.5005 17.4851 22.1675 17.5067C20.4975 17.6567 20.5275 17.7167 20.5175 17.8367C20.4975 18.1367 22.0775 18.1867 22.3975 18.1867Z" fill="#343434"/>
<path fill-rule="evenodd" clip-rule="evenodd" d="M22.1074 29.3768H23.0474C24.5474 29.2668 24.6974 29.3768 24.7474 29.1068C24.7974 28.8368 23.3774 28.7168 22.8474 28.7068C22.5274 28.7068 22.2074 28.7068 21.8474 28.7568C20.1774 28.9068 20.2074 28.9668 20.1874 29.0868C20.1674 29.3268 21.7874 29.3768 22.1074 29.3768Z" fill="#343434"/>
<path fill-rule="evenodd" clip-rule="evenodd" d="M21.9476 32.0867H22.8776C24.3776 31.9767 24.5376 32.0367 24.5776 31.8167C24.6176 31.5967 23.2176 31.4267 22.6776 31.4167C22.3576 31.4167 22.0376 31.4167 21.6776 31.4667C20.0076 31.6267 20.0276 31.6767 20.0176 31.8067C20.0376 32.0367 21.6176 32.0867 21.9476 32.0867Z" fill="#343434"/>
<path fill-rule="evenodd" clip-rule="evenodd" d="M33.9276 29.7368C34.2476 29.7368 34.5576 29.7368 34.8676 29.6868C36.3676 29.5868 36.5275 29.6368 36.5675 29.4268C36.6075 29.2168 35.2076 29.0268 34.6676 29.0268C34.3501 29.0233 34.0328 29.04 33.7175 29.0768C32.0375 29.2268 32.0676 29.2868 32.0576 29.4068C32.0276 29.6868 33.6076 29.7368 33.9276 29.7368Z" fill="#343434"/>
<path fill-rule="evenodd" clip-rule="evenodd" d="M33.7676 32.4368C34.0776 32.4368 34.3876 32.4368 34.6976 32.3868C36.1976 32.2868 36.3576 32.3368 36.3976 32.1268C36.4376 31.9168 35.0376 31.7268 34.4976 31.7268C34.1776 31.7268 33.8576 31.7268 33.5476 31.7768C31.8776 31.9268 31.8976 31.9868 31.8876 32.1068C31.8576 32.3868 33.4376 32.4368 33.7676 32.4368Z" fill="#343434"/>
<path fill-rule="evenodd" clip-rule="evenodd" d="M34.3475 15.6668H35.2875C36.7775 15.5568 36.9375 15.6168 36.9875 15.3968C37.0375 15.1768 35.6175 15.0068 35.0775 14.9968C34.7675 14.9968 34.4475 14.9968 34.1275 15.0468C32.4575 15.2068 32.4775 15.2568 32.4675 15.3868C32.4375 15.6168 34.0175 15.6668 34.3475 15.6668Z" fill="#343434"/>
<path fill-rule="evenodd" clip-rule="evenodd" d="M34.1676 18.3667C34.4876 18.3667 34.7976 18.3667 35.1076 18.3167C36.6076 18.2067 36.7576 18.3167 36.8076 18.0567C36.8576 17.7967 35.4376 17.6567 34.9076 17.6567H33.9076C32.2376 17.8167 32.2676 17.8667 32.2576 17.9967C32.2476 18.1267 33.8576 18.3667 34.1676 18.3667Z" fill="#343434"/>
<path d="M50.6719 28.3301H50.8477C51.6562 28.3301 52.3301 28.2246 52.8691 28.0137C53.4141 27.7969 53.8477 27.498 54.1699 27.1172C54.4922 26.7363 54.7236 26.2881 54.8643 25.7725C55.0049 25.2568 55.0752 24.6973 55.0752 24.0938V21.8877C55.0752 21.3662 55.0195 20.9092 54.9082 20.5166C54.8027 20.1182 54.6504 19.7871 54.4512 19.5234C54.2578 19.2539 54.0322 19.0518 53.7744 18.917C53.5225 18.7822 53.25 18.7148 52.957 18.7148C52.6348 18.7148 52.3447 18.7881 52.0869 18.9346C51.835 19.0752 51.6211 19.2715 51.4453 19.5234C51.2754 19.7695 51.1436 20.0596 51.0498 20.3936C50.9619 20.7217 50.918 21.0732 50.918 21.4482C50.918 21.7998 50.959 22.1396 51.041 22.4678C51.1289 22.79 51.2578 23.0771 51.4277 23.3291C51.5977 23.5811 51.8115 23.7803 52.0693 23.9268C52.3271 24.0732 52.6289 24.1465 52.9746 24.1465C53.3027 24.1465 53.6045 24.085 53.8799 23.9619C54.1553 23.833 54.3955 23.6602 54.6006 23.4434C54.8057 23.2266 54.9668 22.9834 55.084 22.7139C55.2012 22.4443 55.2656 22.1689 55.2773 21.8877L56.0859 22.1338C56.0859 22.5791 55.9922 23.0186 55.8047 23.4521C55.623 23.8799 55.3682 24.2725 55.04 24.6299C54.7178 24.9814 54.3398 25.2627 53.9062 25.4736C53.4785 25.6846 53.0127 25.79 52.5088 25.79C51.8994 25.79 51.3604 25.6758 50.8916 25.4473C50.4287 25.2129 50.042 24.8965 49.7314 24.498C49.4268 24.0996 49.1982 23.6426 49.0459 23.127C48.8936 22.6113 48.8174 22.0693 48.8174 21.501C48.8174 20.8857 48.9111 20.3086 49.0986 19.7695C49.2861 19.2305 49.5586 18.7559 49.916 18.3457C50.2734 17.9297 50.707 17.6074 51.2168 17.3789C51.7324 17.1445 52.3154 17.0273 52.9658 17.0273C53.6572 17.0273 54.2637 17.1621 54.7852 17.4316C55.3066 17.7012 55.7461 18.0732 56.1035 18.5479C56.4609 19.0225 56.7305 19.5732 56.9121 20.2002C57.0938 20.8271 57.1846 21.501 57.1846 22.2217V22.9688C57.1846 23.7246 57.1172 24.4541 56.9824 25.1572C56.8477 25.8545 56.6279 26.502 56.3232 27.0996C56.0244 27.6914 55.6289 28.2129 55.1367 28.6641C54.6504 29.1094 54.0527 29.458 53.3438 29.71C52.6406 29.9561 51.8145 30.0791 50.8652 30.0791H50.6719V28.3301ZM65.9209 22.4238V30H63.8027V20.4902H65.7979L65.9209 22.4238ZM65.5781 24.8936L64.8574 24.8848C64.8574 24.2285 64.9395 23.6221 65.1035 23.0654C65.2676 22.5088 65.5078 22.0254 65.8242 21.6152C66.1406 21.1992 66.5332 20.8799 67.002 20.6572C67.4766 20.4287 68.0244 20.3145 68.6455 20.3145C69.0791 20.3145 69.4746 20.3789 69.832 20.5078C70.1953 20.6309 70.5088 20.8271 70.7725 21.0967C71.042 21.3662 71.2471 21.7119 71.3877 22.1338C71.5342 22.5557 71.6074 23.0654 71.6074 23.6631V30H69.4893V23.8477C69.4893 23.3848 69.4189 23.0215 69.2783 22.7578C69.1436 22.4941 68.9473 22.3066 68.6895 22.1953C68.4375 22.0781 68.1357 22.0195 67.7842 22.0195C67.3857 22.0195 67.0459 22.0957 66.7646 22.248C66.4893 22.4004 66.2637 22.6084 66.0879 22.8721C65.9121 23.1357 65.7832 23.4404 65.7012 23.7861C65.6191 24.1318 65.5781 24.501 65.5781 24.8936ZM71.4756 24.3311L70.4824 24.5508C70.4824 23.9766 70.5615 23.4346 70.7197 22.9248C70.8838 22.4092 71.1211 21.958 71.4316 21.5713C71.748 21.1787 72.1377 20.8711 72.6006 20.6484C73.0635 20.4258 73.5938 20.3145 74.1914 20.3145C74.6777 20.3145 75.1113 20.3818 75.4922 20.5166C75.8789 20.6455 76.207 20.8506 76.4766 21.1318C76.7461 21.4131 76.9512 21.7793 77.0918 22.2305C77.2324 22.6758 77.3027 23.2148 77.3027 23.8477V30H75.1758V23.8389C75.1758 23.3584 75.1055 22.9863 74.9648 22.7227C74.8301 22.459 74.6367 22.2773 74.3848 22.1777C74.1328 22.0723 73.8311 22.0195 73.4795 22.0195C73.1514 22.0195 72.8613 22.0811 72.6094 22.2041C72.3633 22.3213 72.1553 22.4883 71.9854 22.7051C71.8154 22.916 71.6865 23.1592 71.5986 23.4346C71.5166 23.71 71.4756 24.0088 71.4756 24.3311ZM79.0781 25.3506V25.1484C79.0781 24.4629 79.1777 23.8271 79.377 23.2412C79.5762 22.6494 79.8633 22.1367 80.2383 21.7031C80.6191 21.2637 81.082 20.9238 81.627 20.6836C82.1777 20.4375 82.7988 20.3145 83.4902 20.3145C84.1875 20.3145 84.8086 20.4375 85.3535 20.6836C85.9043 20.9238 86.3701 21.2637 86.751 21.7031C87.1318 22.1367 87.4219 22.6494 87.6211 23.2412C87.8203 23.8271 87.9199 24.4629 87.9199 25.1484V25.3506C87.9199 26.0361 87.8203 26.6719 87.6211 27.2578C87.4219 27.8438 87.1318 28.3564 86.751 28.7959C86.3701 29.2295 85.9072 29.5693 85.3623 29.8154C84.8174 30.0557 84.1992 30.1758 83.5078 30.1758C82.8105 30.1758 82.1865 30.0557 81.6357 29.8154C81.0908 29.5693 80.6279 29.2295 80.2471 28.7959C79.8662 28.3564 79.5762 27.8438 79.377 27.2578C79.1777 26.6719 79.0781 26.0361 79.0781 25.3506ZM81.1963 25.1484V25.3506C81.1963 25.7783 81.2402 26.1826 81.3281 26.5635C81.416 26.9443 81.5537 27.2783 81.7412 27.5654C81.9287 27.8525 82.1689 28.0781 82.4619 28.2422C82.7549 28.4062 83.1035 28.4883 83.5078 28.4883C83.9004 28.4883 84.2402 28.4062 84.5273 28.2422C84.8203 28.0781 85.0605 27.8525 85.248 27.5654C85.4355 27.2783 85.5732 26.9443 85.6611 26.5635C85.7549 26.1826 85.8018 25.7783 85.8018 25.3506V25.1484C85.8018 24.7266 85.7549 24.3281 85.6611 23.9531C85.5732 23.5723 85.4326 23.2354 85.2393 22.9424C85.0518 22.6494 84.8115 22.4209 84.5186 22.2568C84.2314 22.0869 83.8887 22.002 83.4902 22.002C83.0918 22.002 82.7461 22.0869 82.4531 22.2568C82.166 22.4209 81.9287 22.6494 81.7412 22.9424C81.5537 23.2354 81.416 23.5723 81.3281 23.9531C81.2402 24.3281 81.1963 24.7266 81.1963 25.1484ZM95.4961 28.0312V16.5H97.623V30H95.6982L95.4961 28.0312ZM89.3086 25.3506V25.166C89.3086 24.4453 89.3936 23.7891 89.5635 23.1973C89.7334 22.5996 89.9795 22.0869 90.3018 21.6592C90.624 21.2256 91.0166 20.8945 91.4795 20.666C91.9424 20.4316 92.4639 20.3145 93.0439 20.3145C93.6182 20.3145 94.1221 20.4258 94.5557 20.6484C94.9893 20.8711 95.3584 21.1904 95.6631 21.6064C95.9678 22.0166 96.2109 22.5088 96.3926 23.083C96.5742 23.6514 96.7031 24.2842 96.7793 24.9814V25.5703C96.7031 26.25 96.5742 26.8711 96.3926 27.4336C96.2109 27.9961 95.9678 28.4824 95.6631 28.8926C95.3584 29.3027 94.9863 29.6191 94.5469 29.8418C94.1133 30.0645 93.6064 30.1758 93.0264 30.1758C92.4521 30.1758 91.9336 30.0557 91.4707 29.8154C91.0137 29.5752 90.624 29.2383 90.3018 28.8047C89.9795 28.3711 89.7334 27.8613 89.5635 27.2754C89.3936 26.6836 89.3086 26.042 89.3086 25.3506ZM91.4268 25.166V25.3506C91.4268 25.7842 91.4648 26.1885 91.541 26.5635C91.623 26.9385 91.749 27.2695 91.9189 27.5566C92.0889 27.8379 92.3086 28.0605 92.5781 28.2246C92.8535 28.3828 93.1816 28.4619 93.5625 28.4619C94.043 28.4619 94.4385 28.3564 94.749 28.1455C95.0596 27.9346 95.3027 27.6504 95.4785 27.293C95.6602 26.9297 95.7832 26.5254 95.8477 26.0801V24.4893C95.8125 24.1436 95.7393 23.8213 95.6279 23.5225C95.5225 23.2236 95.3789 22.9629 95.1973 22.7402C95.0156 22.5117 94.79 22.3359 94.5205 22.2129C94.2568 22.084 93.9434 22.0195 93.5801 22.0195C93.1934 22.0195 92.8652 22.1016 92.5957 22.2656C92.3262 22.4297 92.1035 22.6553 91.9277 22.9424C91.7578 23.2295 91.6318 23.5635 91.5498 23.9443C91.4678 24.3252 91.4268 24.7324 91.4268 25.166ZM105.56 27.7588V20.4902H107.687V30H105.683L105.56 27.7588ZM105.858 25.7812L106.57 25.7637C106.57 26.4023 106.5 26.9912 106.359 27.5303C106.219 28.0635 106.002 28.5293 105.709 28.9277C105.416 29.3203 105.041 29.6279 104.584 29.8506C104.127 30.0674 103.579 30.1758 102.94 30.1758C102.478 30.1758 102.053 30.1084 101.666 29.9736C101.279 29.8389 100.945 29.6309 100.664 29.3496C100.389 29.0684 100.175 28.7021 100.022 28.251C99.8701 27.7998 99.7939 27.2607 99.7939 26.6338V20.4902H101.912V26.6514C101.912 26.9971 101.953 27.2871 102.035 27.5215C102.117 27.75 102.229 27.9346 102.369 28.0752C102.51 28.2158 102.674 28.3154 102.861 28.374C103.049 28.4326 103.248 28.4619 103.459 28.4619C104.062 28.4619 104.537 28.3447 104.883 28.1104C105.234 27.8701 105.483 27.5479 105.63 27.1436C105.782 26.7393 105.858 26.2852 105.858 25.7812ZM112.125 16.5V30H109.998V16.5H112.125ZM118.638 30.1758C117.935 30.1758 117.299 30.0615 116.73 29.833C116.168 29.5986 115.688 29.2734 115.289 28.8574C114.896 28.4414 114.595 27.9521 114.384 27.3896C114.173 26.8271 114.067 26.2207 114.067 25.5703V25.2188C114.067 24.4746 114.176 23.8008 114.393 23.1973C114.609 22.5938 114.911 22.0781 115.298 21.6504C115.685 21.2168 116.142 20.8857 116.669 20.6572C117.196 20.4287 117.768 20.3145 118.383 20.3145C119.062 20.3145 119.657 20.4287 120.167 20.6572C120.677 20.8857 121.099 21.208 121.433 21.624C121.772 22.0342 122.024 22.5234 122.188 23.0918C122.358 23.6602 122.443 24.2871 122.443 24.9727V25.8779H115.096V24.3574H120.352V24.1904C120.34 23.8096 120.264 23.4521 120.123 23.1182C119.988 22.7842 119.78 22.5146 119.499 22.3096C119.218 22.1045 118.843 22.002 118.374 22.002C118.022 22.002 117.709 22.0781 117.434 22.2305C117.164 22.377 116.938 22.5908 116.757 22.8721C116.575 23.1533 116.435 23.4932 116.335 23.8916C116.241 24.2842 116.194 24.7266 116.194 25.2188V25.5703C116.194 25.9863 116.25 26.373 116.361 26.7305C116.479 27.082 116.648 27.3896 116.871 27.6533C117.094 27.917 117.363 28.125 117.68 28.2773C117.996 28.4238 118.356 28.4971 118.761 28.4971C119.271 28.4971 119.725 28.3945 120.123 28.1895C120.521 27.9844 120.867 27.6943 121.16 27.3193L122.276 28.4004C122.071 28.6992 121.805 28.9863 121.477 29.2617C121.148 29.5312 120.747 29.751 120.272 29.9209C119.804 30.0908 119.259 30.1758 118.638 30.1758ZM129.431 27.4248C129.431 27.2139 129.378 27.0234 129.272 26.8535C129.167 26.6777 128.965 26.5195 128.666 26.3789C128.373 26.2383 127.939 26.1094 127.365 25.9922C126.861 25.8809 126.398 25.749 125.977 25.5967C125.561 25.4385 125.203 25.248 124.904 25.0254C124.605 24.8027 124.374 24.5391 124.21 24.2344C124.046 23.9297 123.964 23.5781 123.964 23.1797C123.964 22.793 124.049 22.4268 124.219 22.0811C124.389 21.7354 124.632 21.4307 124.948 21.167C125.265 20.9033 125.648 20.6953 126.1 20.543C126.557 20.3906 127.066 20.3145 127.629 20.3145C128.426 20.3145 129.108 20.4492 129.677 20.7188C130.251 20.9824 130.69 21.3428 130.995 21.7998C131.3 22.251 131.452 22.7607 131.452 23.3291H129.334C129.334 23.0771 129.27 22.8428 129.141 22.626C129.018 22.4033 128.83 22.2246 128.578 22.0898C128.326 21.9492 128.01 21.8789 127.629 21.8789C127.266 21.8789 126.964 21.9375 126.724 22.0547C126.489 22.166 126.313 22.3125 126.196 22.4941C126.085 22.6758 126.029 22.875 126.029 23.0918C126.029 23.25 126.059 23.3936 126.117 23.5225C126.182 23.6455 126.287 23.7598 126.434 23.8652C126.58 23.9648 126.779 24.0586 127.031 24.1465C127.289 24.2344 127.611 24.3193 127.998 24.4014C128.725 24.5537 129.349 24.75 129.87 24.9902C130.397 25.2246 130.802 25.5293 131.083 25.9043C131.364 26.2734 131.505 26.7422 131.505 27.3105C131.505 27.7324 131.414 28.1191 131.232 28.4707C131.057 28.8164 130.799 29.1182 130.459 29.376C130.119 29.6279 129.712 29.8242 129.237 29.9648C128.769 30.1055 128.241 30.1758 127.655 30.1758C126.794 30.1758 126.064 30.0234 125.467 29.7188C124.869 29.4082 124.415 29.0127 124.104 28.5322C123.8 28.0459 123.647 27.542 123.647 27.0205H125.695C125.719 27.4131 125.827 27.7266 126.021 27.9609C126.22 28.1895 126.466 28.3564 126.759 28.4619C127.058 28.5615 127.365 28.6113 127.682 28.6113C128.062 28.6113 128.382 28.5615 128.64 28.4619C128.897 28.3564 129.094 28.2158 129.229 28.04C129.363 27.8584 129.431 27.6533 129.431 27.4248Z" fill="#343434"/>
</svg>
