<svg width="128" height="40" viewBox="0 0 128 40" fill="none" xmlns="http://www.w3.org/2000/svg">
<rect width="40" height="40" rx="20" fill="#003366"/>
<path fill-rule="evenodd" clip-rule="evenodd" d="M17.2159 13.875L25.5682 13.875C25.7159 13.875 25.8575 13.9337 25.9619 14.0381C26.0663 14.1425 26.125 14.2841 26.125 14.4318V22.7841C26.125 23.0916 25.8757 23.3409 25.5682 23.3409C25.2607 23.3409 25.0114 23.0916 25.0114 22.7841V15.7761L14.8255 25.9619C14.6081 26.1794 14.2555 26.1794 14.0381 25.9619C13.8206 25.7445 13.8206 25.3919 14.0381 25.1745L24.2239 14.9886L17.2159 14.9886C16.9084 14.9886 16.6591 14.7393 16.6591 14.4318C16.6591 14.1243 16.9084 13.875 17.2159 13.875Z" fill="#FBFBFB"/>
<path d="M55.5762 27H52.5391L52.5586 25.0566H55.5762C56.4551 25.0566 57.1908 24.8646 57.7832 24.4805C58.3822 24.0964 58.8314 23.5462 59.1309 22.8301C59.4368 22.1139 59.5898 21.2611 59.5898 20.2715V19.5C59.5898 18.7318 59.502 18.0514 59.3262 17.459C59.1569 16.8665 58.903 16.3685 58.5645 15.9648C58.2324 15.5612 57.8223 15.2552 57.334 15.0469C56.8522 14.8385 56.2956 14.7344 55.6641 14.7344H52.4805V12.7812H55.6641C56.6081 12.7812 57.4707 12.9408 58.252 13.2598C59.0332 13.5723 59.707 14.0247 60.2734 14.6172C60.8464 15.2096 61.2858 15.9193 61.5918 16.7461C61.8978 17.5729 62.0508 18.4974 62.0508 19.5195V20.2715C62.0508 21.2936 61.8978 22.2181 61.5918 23.0449C61.2858 23.8717 60.8464 24.5814 60.2734 25.1738C59.7005 25.7598 59.0169 26.2122 58.2227 26.5312C57.4349 26.8438 56.5527 27 55.5762 27ZM53.8965 12.7812V27H51.4453V12.7812H53.8965ZM73.8184 25.0566V27H66.2695V25.0566H73.8184ZM66.9629 12.7812V27H64.5117V12.7812H66.9629ZM72.832 18.7188V20.6328H66.2695V18.7188H72.832ZM73.7695 12.7812V14.7344H66.2695V12.7812H73.7695ZM81.8652 12.7812V27H79.4336V12.7812H81.8652ZM86.3281 12.7812V14.7344H75.0098V12.7812H86.3281ZM92.8027 14.6758L88.5547 27H85.9863L91.3379 12.7812H92.9785L92.8027 14.6758ZM96.3574 27L92.0996 14.6758L91.9141 12.7812H93.5645L98.9355 27H96.3574ZM96.1523 21.7266V23.6699H88.418V21.7266H96.1523ZM103.145 12.7812V27H100.693V12.7812H103.145ZM115.098 25.0566V27H107.959V25.0566H115.098ZM108.643 12.7812V27H106.191V12.7812H108.643ZM124.473 23.3379C124.473 23.0449 124.427 22.7845 124.336 22.5566C124.251 22.3288 124.098 22.1204 123.877 21.9316C123.656 21.7428 123.343 21.5605 122.939 21.3848C122.542 21.2025 122.035 21.0169 121.416 20.8281C120.739 20.6198 120.114 20.3887 119.541 20.1348C118.975 19.8743 118.48 19.5749 118.057 19.2363C117.633 18.8913 117.305 18.4974 117.07 18.0547C116.836 17.6055 116.719 17.0879 116.719 16.502C116.719 15.9225 116.839 15.3952 117.08 14.9199C117.327 14.4447 117.676 14.0345 118.125 13.6895C118.581 13.3379 119.118 13.0677 119.736 12.8789C120.355 12.6836 121.038 12.5859 121.787 12.5859C122.842 12.5859 123.75 12.7812 124.512 13.1719C125.28 13.5625 125.869 14.0866 126.279 14.7441C126.696 15.4017 126.904 16.1276 126.904 16.9219H124.473C124.473 16.4531 124.372 16.0397 124.17 15.6816C123.975 15.3171 123.675 15.0306 123.271 14.8223C122.874 14.6139 122.37 14.5098 121.758 14.5098C121.178 14.5098 120.697 14.5977 120.312 14.7734C119.928 14.9492 119.642 15.1868 119.453 15.4863C119.264 15.7858 119.17 16.1243 119.17 16.502C119.17 16.7689 119.232 17.013 119.355 17.2344C119.479 17.4492 119.668 17.651 119.922 17.8398C120.176 18.0221 120.495 18.1947 120.879 18.3574C121.263 18.5202 121.715 18.6764 122.236 18.8262C123.024 19.0605 123.711 19.321 124.297 19.6074C124.883 19.8874 125.371 20.2064 125.762 20.5645C126.152 20.9225 126.445 21.3294 126.641 21.7852C126.836 22.2344 126.934 22.7454 126.934 23.3184C126.934 23.9173 126.813 24.4577 126.572 24.9395C126.331 25.4147 125.986 25.8216 125.537 26.1602C125.094 26.4922 124.561 26.7493 123.936 26.9316C123.317 27.1074 122.627 27.1953 121.865 27.1953C121.182 27.1953 120.508 27.1042 119.844 26.9219C119.186 26.7396 118.587 26.4629 118.047 26.0918C117.507 25.7142 117.077 25.2454 116.758 24.6855C116.439 24.1191 116.279 23.4583 116.279 22.7031H118.73C118.73 23.1654 118.809 23.5592 118.965 23.8848C119.128 24.2103 119.352 24.4772 119.639 24.6855C119.925 24.8874 120.257 25.0371 120.635 25.1348C121.019 25.2324 121.429 25.2812 121.865 25.2812C122.438 25.2812 122.917 25.1999 123.301 25.0371C123.691 24.8743 123.984 24.6465 124.18 24.3535C124.375 24.0605 124.473 23.722 124.473 23.3379Z" fill="#343434"/>
</svg>
