<svg width="123" height="47" viewBox="0 0 123 47" fill="none" xmlns="http://www.w3.org/2000/svg">
<rect width="123" height="47" rx="23.5" fill="#EFF3F7"/>
<g clip-path="url(#clip0_5099_240)">
<path fill-rule="evenodd" clip-rule="evenodd" d="M39.7902 16.69C39.5618 15.5388 39.0169 14.4741 38.2166 13.6155C37.4164 12.757 36.3925 12.1387 35.2602 11.83C34.0426 11.5621 32.7757 11.6243 31.5902 12.01C30.4221 12.3814 29.3823 13.0746 28.5902 14.01C27.5073 15.3736 26.9092 17.0589 26.8902 18.8C26.8381 19.6681 27.017 20.5345 27.4087 21.3109C27.8005 22.0874 28.391 22.7461 29.1202 23.22C29.5602 23.51 29.4002 23.08 28.8402 25.42C28.4002 26.91 28.4702 26.56 28.4902 26.71C28.4945 26.8191 28.5329 26.924 28.6002 27.01C28.6707 27.1104 28.7728 27.1843 28.8902 27.22C29.1949 27.3037 29.5189 27.2825 29.8102 27.16C30.26 26.941 30.6801 26.6654 31.0602 26.34L32.4902 25.17C32.5258 25.1477 32.5565 25.1185 32.5805 25.084C32.6044 25.0495 32.6211 25.0105 32.6295 24.9693C32.6379 24.9282 32.6379 24.8857 32.6294 24.8446C32.6209 24.8035 32.6042 24.7645 32.5802 24.73C32.5333 24.6602 32.461 24.6117 32.3786 24.5949C32.2963 24.578 32.2107 24.5942 32.1402 24.64L30.5602 25.58C30.286 25.7528 30.0022 25.9097 29.7102 26.05L29.7902 25.66C29.8302 25.42 29.8602 25.18 29.8802 24.94C29.8802 24.4 29.8802 23.87 29.9702 23.34C29.9702 23.19 29.8502 23.13 29.7502 23.01C29.6615 22.8993 29.5486 22.8104 29.4202 22.75C28.7994 22.3108 28.3065 21.7146 27.992 21.0223C27.6774 20.3299 27.5526 19.5665 27.6302 18.81C27.695 17.2745 28.2684 15.804 29.2602 14.63C29.9745 13.8526 30.8926 13.2913 31.9102 13.01C32.9111 12.6974 33.9765 12.6526 35.0002 12.88C35.947 13.138 36.804 13.6529 37.4764 14.3676C38.1488 15.0824 38.6104 15.9692 38.8102 16.93C39.0901 17.8933 39.1381 18.9092 38.9504 19.8946C38.7627 20.88 38.3446 21.8071 37.7302 22.6C37.2163 23.2181 36.5465 23.6877 35.7902 23.96C35.0029 24.2147 34.1771 24.3297 33.3502 24.3C33.2667 24.3021 33.1869 24.3349 33.1261 24.3921C33.0652 24.4493 33.0275 24.5268 33.0202 24.61C33.0188 24.6529 33.0261 24.6956 33.0416 24.7355C33.0571 24.7755 33.0805 24.812 33.1103 24.8428C33.1401 24.8736 33.1759 24.898 33.2154 24.9147C33.2549 24.9314 33.2973 24.94 33.3402 24.94C34.2442 24.9968 35.1511 24.8953 36.0202 24.64C36.9141 24.3529 37.7128 23.8274 38.3302 23.12C39.0666 22.2412 39.5832 21.1996 39.8371 20.0814C40.091 18.9633 40.0749 17.8007 39.7902 16.69Z" fill="#003366"/>
<path fill-rule="evenodd" clip-rule="evenodd" d="M18.3801 23.6401C18.868 24.0157 19.4156 24.3065 20.0001 24.5001C21.5601 25.0501 21.4101 24.6501 21.8001 25.1201L22.9101 26.5801L23.7901 27.6401C23.8905 27.7686 24.0008 27.889 24.1201 28.0001C24.2258 28.0923 24.36 28.1453 24.5001 28.1501C24.5936 28.1525 24.6865 28.135 24.7727 28.0988C24.8589 28.0626 24.9364 28.0085 25.0001 27.9401C25.1294 27.7407 25.224 27.521 25.2801 27.2901L25.3401 26.8001L25.2701 25.8001L25.2301 24.4001C25.5213 24.4059 25.8116 24.3654 26.0901 24.2801C26.2037 24.2374 26.3112 24.1803 26.4101 24.1101C26.509 24.0444 26.5996 23.9672 26.6801 23.8801C26.8625 23.6713 27.0264 23.4471 27.1701 23.2101C27.2271 23.149 27.2587 23.0686 27.2587 22.9851C27.2587 22.9016 27.2271 22.8212 27.1701 22.7601C27.1102 22.7009 27.0294 22.6676 26.9451 22.6676C26.8609 22.6676 26.78 22.7009 26.7201 22.7601C26.4201 22.9601 26.1001 23.0601 25.8101 23.2201C25.7326 23.2711 25.6591 23.328 25.5901 23.3901C25.3901 23.5501 25.2601 23.7301 25.0601 23.8701C24.8601 24.0101 25.0601 23.8701 24.9101 23.8701C24.8681 23.8674 24.8259 23.873 24.786 23.8866C24.7462 23.9002 24.7094 23.9216 24.6778 23.9495C24.6462 23.9774 24.6205 24.0112 24.602 24.049C24.5835 24.0869 24.5727 24.128 24.5701 24.1701L24.4301 25.7601L24.3401 26.6901L23.5601 25.9601L22.2401 24.7601C22.0501 24.5401 22.1601 24.3401 21.8701 24.2901C21.318 24.2022 20.7778 24.0512 20.2601 23.8401C19.7558 23.651 19.2912 23.3696 18.8901 23.0101C18.6617 22.7979 18.4633 22.5557 18.3001 22.2901C18.1336 22.0365 17.9833 21.7727 17.8501 21.5001C17.5787 20.9592 17.3706 20.3887 17.2301 19.8001C17.0827 19.2326 17.0253 18.6454 17.0601 18.0601C17.1214 16.8771 17.5398 15.7405 18.2601 14.8001C18.9564 13.8527 19.9062 13.1212 21.0001 12.6901C21.4055 12.5346 21.8288 12.4304 22.2601 12.3801C22.6956 12.3349 23.1346 12.3349 23.5701 12.3801C24.0533 12.4017 24.5328 12.4755 25.0001 12.6001C25.4534 12.7369 25.8921 12.9177 26.3101 13.1401C26.3756 13.1733 26.4513 13.1804 26.5218 13.1599C26.5923 13.1395 26.6525 13.0931 26.6901 13.0301C26.7094 12.9975 26.7219 12.9613 26.7268 12.9237C26.7317 12.8862 26.7289 12.848 26.7186 12.8115C26.7083 12.7751 26.6907 12.7411 26.6669 12.7116C26.6431 12.6821 26.6136 12.6578 26.5801 12.6401C26.1251 12.3787 25.6463 12.161 25.1501 11.9901C24.6635 11.8199 24.161 11.6992 23.6501 11.6301C23.1667 11.5606 22.6776 11.5405 22.1901 11.5701C21.6912 11.6017 21.1977 11.6924 20.7201 11.8401C19.4014 12.2573 18.2421 13.0685 17.3982 14.1644C16.5544 15.2604 16.0664 16.5885 16.0001 17.9701C15.9878 18.6466 16.0789 19.321 16.2701 19.9701C16.4653 20.6121 16.7267 21.2321 17.0501 21.8201C17.2489 22.2108 17.4832 22.5824 17.7501 22.9301C17.9343 23.1885 18.1455 23.4265 18.3801 23.6401Z" fill="#003366"/>
<path fill-rule="evenodd" clip-rule="evenodd" d="M31.0001 21.2402C31.005 21.2824 31.0183 21.3231 31.0392 21.3601C31.06 21.3971 31.088 21.4295 31.1215 21.4556C31.155 21.4816 31.1933 21.5008 31.2343 21.5119C31.2753 21.523 31.318 21.5258 31.3601 21.5202C32.0949 21.5044 32.8111 21.2864 33.4301 20.8902C33.6617 21.0166 33.9065 21.1172 34.1601 21.1902C34.5822 21.3146 35.0136 21.4049 35.4501 21.4602C35.4927 21.4752 35.538 21.4811 35.5831 21.4773C35.6281 21.4736 35.6718 21.4604 35.7113 21.4385C35.7509 21.4167 35.7854 21.3867 35.8125 21.3506C35.8396 21.3145 35.8588 21.273 35.8688 21.2289C35.8787 21.1849 35.8792 21.1392 35.8702 21.0949C35.8613 21.0506 35.843 21.0087 35.8167 20.972C35.7904 20.9353 35.7566 20.9046 35.7175 20.8818C35.6785 20.8591 35.635 20.8449 35.5901 20.8402C35.2707 20.7444 34.9569 20.6309 34.6501 20.5002C34.4944 20.4164 34.3441 20.3229 34.2001 20.2202C34.331 20.0746 34.4481 19.9173 34.5501 19.7502C34.7067 19.4732 34.8276 19.1775 34.9101 18.8702L35.1001 17.3302C35.4501 17.3302 35.8101 17.2702 36.1601 17.2202C36.384 17.1893 36.6048 17.1391 36.8201 17.0702C36.8608 17.0597 36.8991 17.0413 36.9327 17.016C36.9663 16.9907 36.9946 16.9591 37.0159 16.9229C37.0373 16.8866 37.0513 16.8466 37.0572 16.8049C37.063 16.7633 37.0606 16.7209 37.0501 16.6802C37.0267 16.5994 36.9733 16.5305 36.9008 16.4878C36.8283 16.445 36.7422 16.4316 36.6601 16.4502C36.4771 16.4651 36.2931 16.4651 36.1101 16.4502C35.6301 16.4502 35.1101 16.3502 34.6601 16.3502H33.7401C33.6601 16.1902 33.6201 16.0402 33.5301 15.8902C33.4719 15.7769 33.3978 15.6726 33.3101 15.5802C33.1255 15.4307 32.9242 15.3032 32.7101 15.2002C32.6624 15.1419 32.5934 15.1049 32.5184 15.0974C32.4434 15.0899 32.3685 15.1125 32.3101 15.1602C32.2518 15.2079 32.2148 15.2769 32.2073 15.3519C32.1998 15.4269 32.2224 15.5019 32.2701 15.5602C32.3128 15.7596 32.3662 15.9565 32.4301 16.1502C32.4685 16.2285 32.5155 16.3023 32.5701 16.3702C32.5885 16.3954 32.6124 16.4159 32.6401 16.4302L32.1401 16.5002L31.2201 16.6702C31.0269 16.6805 30.8333 16.6805 30.6401 16.6702C30.6025 16.6661 30.5645 16.6696 30.5283 16.6806C30.4921 16.6915 30.4585 16.7097 30.4296 16.734C30.4006 16.7583 30.3769 16.7882 30.3598 16.8219C30.3427 16.8556 30.3326 16.8925 30.3301 16.9302C30.326 16.9665 30.3292 17.0032 30.3397 17.0382C30.3501 17.0731 30.3676 17.1056 30.3909 17.1337C30.4143 17.1617 30.4431 17.1847 30.4756 17.2013C30.5082 17.2179 30.5437 17.2277 30.5801 17.2302L31.5801 17.3202C31.5753 17.4068 31.5753 17.4936 31.5801 17.5802C31.5974 17.8636 31.6409 18.1448 31.7101 18.4202C31.8185 18.8753 31.9901 19.3129 32.2201 19.7202C32.3302 19.8865 32.4575 20.0407 32.6001 20.1802C32.1971 20.4788 31.7379 20.6931 31.2501 20.8102C31.203 20.8175 31.1581 20.8353 31.1188 20.8621C31.0794 20.889 31.0465 20.9244 31.0226 20.9656C30.9986 21.0068 30.9841 21.0528 30.9803 21.1003C30.9764 21.1479 30.9832 21.1956 31.0001 21.2402ZM32.2701 17.5502V17.4402H33.4801C33.8801 17.4402 34.1501 17.4402 34.4801 17.3502L34.0001 18.5002C33.8358 18.8372 33.631 19.1529 33.3901 19.4402H33.3401C33.3044 19.3988 33.271 19.3554 33.2401 19.3102C32.9459 18.958 32.7004 18.5678 32.5101 18.1502C32.4119 17.958 32.3316 17.7571 32.2701 17.5502Z" fill="#003366"/>
<path fill-rule="evenodd" clip-rule="evenodd" d="M21.7402 16.2802C21.9032 16.2953 22.0672 16.2953 22.2302 16.2802C22.3902 16.2802 22.5402 16.2202 22.7002 16.1902L23.2902 16.0502C23.3309 16.0607 23.3733 16.0631 23.4149 16.0573C23.4566 16.0514 23.4967 16.0374 23.5329 16.016C23.5691 15.9947 23.6008 15.9664 23.626 15.9328C23.6513 15.8992 23.6697 15.8609 23.6802 15.8202C23.6923 15.7802 23.6962 15.7381 23.6916 15.6965C23.687 15.6549 23.674 15.6147 23.6535 15.5782C23.6329 15.5418 23.6052 15.5099 23.572 15.4845C23.5388 15.459 23.5007 15.4406 23.4602 15.4302L22.6902 15.2702L22.2902 15.2102H21.8902H21.6602C21.3402 15.2802 21.0602 15.4002 20.7502 15.4702C20.6894 15.4685 20.6289 15.4798 20.5727 15.5032C20.5166 15.5267 20.466 15.5617 20.4244 15.6062C20.3828 15.6506 20.3511 15.7033 20.3315 15.7609C20.3118 15.8185 20.3045 15.8796 20.3102 15.9402L20.2202 18.3602V19.3602V20.2402C20.237 20.4631 20.3206 20.6757 20.4602 20.8502C20.5671 20.9712 20.7 21.0665 20.8489 21.1288C20.9979 21.1911 21.159 21.219 21.3202 21.2102L22.0402 21.1102L22.6602 21.0002L23.8302 20.8502C23.9041 20.8241 23.9659 20.7718 24.0038 20.7032C24.0417 20.6346 24.0531 20.5544 24.0359 20.478C24.0186 20.4015 23.9739 20.334 23.9101 20.2884C23.8464 20.2427 23.7682 20.222 23.6902 20.2302H22.6102L22.0002 20.2402H21.4002H21.2902C21.2848 20.1937 21.2848 20.1467 21.2902 20.1002V19.3702L21.1702 18.3702V18.2302C21.3268 18.3048 21.4911 18.3618 21.6602 18.4002C21.7704 18.4435 21.8841 18.477 22.0002 18.5002C22.12 18.5101 22.2404 18.5101 22.3602 18.5002C22.6451 18.4522 22.9236 18.3717 23.1902 18.2602C23.2735 18.2478 23.3486 18.2031 23.3992 18.1357C23.4497 18.0683 23.4717 17.9837 23.4602 17.9002C23.4541 17.858 23.4397 17.8174 23.4177 17.7808C23.3957 17.7442 23.3666 17.7124 23.3321 17.6872C23.2976 17.6621 23.2585 17.6441 23.2169 17.6343C23.1754 17.6245 23.1323 17.6231 23.0902 17.6302C22.8402 17.6302 22.6102 17.5202 22.3402 17.4902C22.1708 17.4703 21.9996 17.4703 21.8302 17.4902C21.584 17.465 21.3357 17.4684 21.0902 17.5002L20.8902 16.1002C21.168 16.184 21.4523 16.2443 21.7402 16.2802Z" fill="#003366"/>
<path fill-rule="evenodd" clip-rule="evenodd" d="M35.8701 30.5002C34.8701 30.8102 33.7001 31.0402 32.6101 31.4002C31.8683 31.6274 31.1514 31.9289 30.4701 32.3002C27.4701 33.9402 27.9501 35.3502 27.9101 34.4202L27.8601 32.5402V31.3102C27.8601 30.9002 27.8601 30.4802 27.8001 30.0702C27.7301 29.2402 27.5901 28.4302 27.4401 27.6002C27.4401 27.5259 27.4106 27.4547 27.3581 27.4022C27.3056 27.3497 27.2344 27.3202 27.1601 27.3202C27.0859 27.3202 27.0146 27.3497 26.9621 27.4022C26.9096 27.4547 26.8801 27.5259 26.8801 27.6002C26.8801 28.6002 26.7601 29.6002 26.7701 30.6002C26.7701 31.2602 26.8501 31.9202 26.9101 32.6002L27.2801 34.5002V34.5502L26.5801 34.0702C26.3126 33.9202 26.0313 33.7963 25.7401 33.7002C25.3301 33.5602 24.9101 33.4602 24.5001 33.3302C24.0876 33.1934 23.6667 33.0832 23.2401 33.0002C22.831 32.9117 22.4169 32.8483 22.0001 32.8102L20.3901 32.6202L19.5501 32.4302C19.2601 32.3602 19.1101 32.3002 19.0401 32.1502C18.9441 31.6631 18.9072 31.1661 18.9301 30.6702L18.6101 28.5002C18.5401 27.8202 18.4901 27.1502 18.4001 26.5002C18.3444 26.0462 18.2643 25.5955 18.1601 25.1502C18.1412 25.0777 18.0958 25.0149 18.0328 24.9742C17.9699 24.9334 17.894 24.9178 17.8201 24.9302C17.7831 24.9371 17.748 24.9516 17.7169 24.9729C17.6859 24.9942 17.6597 25.0217 17.6399 25.0537C17.6201 25.0857 17.6073 25.1215 17.6021 25.1588C17.597 25.1961 17.5997 25.234 17.6101 25.2702C17.6759 25.6775 17.7193 26.0881 17.7401 26.5002C17.7401 27.1602 17.7401 27.8202 17.7901 28.5002L17.9001 30.7502C17.8577 31.3553 17.8913 31.9634 18.0001 32.5602C18.1098 32.8132 18.2839 33.0331 18.5049 33.198C18.726 33.3629 18.9863 33.4671 19.2601 33.5002L20.1701 33.7002C20.4601 33.7502 20.7501 33.7802 21.0501 33.8102H21.9301C22.3248 33.8109 22.719 33.8377 23.1101 33.8902C23.5073 33.9455 23.9012 34.0223 24.2901 34.1202C24.7001 34.2202 25.1201 34.2902 25.5301 34.4002C25.7827 34.4689 26.03 34.5558 26.2701 34.6602L27.4301 35.3702C27.4301 35.3702 27.9601 35.5102 28.0901 35.3202C28.6662 34.6381 29.3692 34.0744 30.1601 33.6602C30.4501 33.5002 30.7501 33.3502 31.0501 33.2102C31.5101 32.9902 31.9701 32.7902 32.4401 32.5902C33.6701 32.0802 34.9201 31.5902 36.0801 31.1202C36.1199 31.108 36.1568 31.0876 36.1883 31.0604C36.2199 31.0332 36.2454 30.9997 36.2633 30.962C36.2811 30.9244 36.291 30.8835 36.2921 30.8418C36.2933 30.8002 36.2858 30.7588 36.2701 30.7202C36.2599 30.6785 36.2411 30.6394 36.215 30.6053C36.1889 30.5713 36.156 30.543 36.1184 30.5223C36.0808 30.5017 36.0393 30.489 35.9966 30.4852C35.9539 30.4814 35.9108 30.4865 35.8701 30.5002Z" fill="#003366"/>
<path fill-rule="evenodd" clip-rule="evenodd" d="M37.0001 25.6C37.0028 25.5629 36.9979 25.5256 36.9855 25.4905C36.9732 25.4554 36.9538 25.4232 36.9284 25.396C36.9031 25.3688 36.8724 25.3471 36.8382 25.3323C36.8041 25.3175 36.7673 25.3099 36.7301 25.31C36.6925 25.3086 36.655 25.3149 36.6198 25.3284C36.5847 25.3418 36.5526 25.3622 36.5256 25.3884C36.4985 25.4145 36.477 25.4458 36.4623 25.4805C36.4476 25.5151 36.44 25.5524 36.4401 25.59C36.3262 26.2012 36.2527 26.8192 36.2201 27.44C36.2001 27.7997 36.2001 28.1603 36.2201 28.52C36.2201 29.07 36.3201 29.59 36.3101 30.13C36.3045 30.1721 36.3073 30.2148 36.3184 30.2558C36.3295 30.2968 36.3486 30.3351 36.3747 30.3686C36.4007 30.4021 36.4332 30.4301 36.4702 30.4509C36.5072 30.4718 36.5479 30.4851 36.5901 30.49C36.6308 30.4956 36.6723 30.493 36.712 30.4824C36.7518 30.4719 36.7891 30.4535 36.8216 30.4283C36.8542 30.4032 36.8815 30.3718 36.9018 30.3361C36.9221 30.3003 36.9351 30.2608 36.9401 30.22C37.0802 29.6819 37.1772 29.1335 37.2301 28.58C37.25 28.3437 37.25 28.1062 37.2301 27.87C37.245 27.6402 37.245 27.4098 37.2301 27.18C37.1501 26.64 37.0001 26.13 37.0001 25.6Z" fill="#003366"/>
<path fill-rule="evenodd" clip-rule="evenodd" d="M32.1901 28.9602C31.8301 29.1002 31.4701 29.2102 31.1201 29.3802C30.5983 29.6642 30.1059 29.9992 29.6501 30.3802C29.6136 30.3958 29.5809 30.419 29.554 30.4482C29.5272 30.4774 29.5068 30.5121 29.4944 30.5497C29.4819 30.5874 29.4776 30.6273 29.4817 30.6668C29.4859 30.7063 29.4984 30.7444 29.5184 30.7787C29.5384 30.813 29.5654 30.8427 29.5978 30.8657C29.6301 30.8887 29.6669 30.9046 29.7059 30.9123C29.7448 30.92 29.785 30.9194 29.8236 30.9104C29.8623 30.9014 29.8986 30.8843 29.9301 30.8602C30.5301 30.6102 31.1601 30.4802 31.7801 30.2702C32.0501 30.1802 32.3001 30.0602 32.5601 29.9602C32.8201 29.8602 33.1801 29.6002 33.5601 29.4602C33.7497 29.3715 33.9523 29.3141 34.1601 29.2902C34.2434 29.2958 34.3256 29.2685 34.3892 29.2144C34.4527 29.1602 34.4925 29.0833 34.5001 29.0002C34.5029 28.9581 34.4972 28.916 34.4836 28.8761C34.47 28.8363 34.4486 28.7995 34.4208 28.7679C34.3929 28.7363 34.359 28.7105 34.3212 28.692C34.2833 28.6736 34.2422 28.6627 34.2001 28.6602C33.9132 28.6009 33.6171 28.6009 33.3301 28.6602C32.9448 28.7388 32.5642 28.839 32.1901 28.9602Z" fill="#343434"/>
<path fill-rule="evenodd" clip-rule="evenodd" d="M20.9001 30.9601C21.3701 31.1001 21.9001 31.2701 22.4201 31.3801C22.7101 31.4301 23.0101 31.4601 23.2901 31.5001C23.7138 31.5265 24.1315 31.6141 24.5301 31.7601C24.6031 31.8052 24.6909 31.8195 24.7744 31.7998C24.8578 31.7801 24.93 31.7281 24.9751 31.6551C25.0202 31.5822 25.0345 31.4943 25.0148 31.4109C24.9951 31.3274 24.9431 31.2552 24.8701 31.2101C24.4193 30.8687 23.9013 30.6267 23.3501 30.5001C23.0238 30.4137 22.6877 30.37 22.3501 30.3701C21.8501 30.3701 21.3501 30.4401 20.9401 30.4501C20.9039 30.4445 20.8668 30.4463 20.8313 30.4555C20.7958 30.4647 20.7625 30.481 20.7335 30.5034C20.7045 30.5259 20.6804 30.554 20.6626 30.5861C20.6448 30.6182 20.6338 30.6536 20.6301 30.6901C20.6326 30.7609 20.6619 30.8282 20.712 30.8783C20.7621 30.9284 20.8293 30.9576 20.9001 30.9601Z" fill="#343434"/>
<path fill-rule="evenodd" clip-rule="evenodd" d="M22.0002 29.1802C22.1506 29.2307 22.3043 29.2708 22.4602 29.3001C22.6102 29.3001 22.7702 29.3601 22.9202 29.3901C23.3002 29.4501 23.6702 29.4801 24.0302 29.5501C24.1084 29.5793 24.195 29.5762 24.271 29.5415C24.3469 29.5068 24.406 29.4434 24.4352 29.3651C24.4643 29.2869 24.4612 29.2003 24.4265 29.1243C24.3919 29.0484 24.3284 28.9893 24.2502 28.9601C23.9128 28.7504 23.5582 28.5697 23.1902 28.4202C23.0334 28.3546 22.8732 28.2979 22.7102 28.2502C22.5428 28.2089 22.3721 28.1821 22.2002 28.1702C21.7988 28.1537 21.3969 28.1771 21.0002 28.2401C20.9639 28.236 20.9272 28.2393 20.8922 28.2497C20.8572 28.2602 20.8247 28.2776 20.7967 28.301C20.7687 28.3244 20.7456 28.3532 20.7291 28.3857C20.7125 28.4182 20.7026 28.4537 20.7002 28.4901C20.6973 28.5307 20.7031 28.5715 20.717 28.6097C20.7309 28.6479 20.7528 28.6828 20.7811 28.712C20.8094 28.7413 20.8435 28.7642 20.8812 28.7794C20.919 28.7946 20.9595 28.8017 21.0002 28.8001C21.3202 28.9001 21.6402 29.0602 22.0002 29.1802Z" fill="#343434"/>
<path fill-rule="evenodd" clip-rule="evenodd" d="M33.12 26.8902C32.6258 26.8302 32.1249 26.8573 31.64 26.9702C31.43 27.0191 31.2256 27.0894 31.03 27.1802C30.8394 27.2758 30.6586 27.3896 30.49 27.5202C30.1138 27.8343 29.778 28.1937 29.49 28.5902C29.4357 28.6419 29.4041 28.7131 29.4022 28.7881C29.4003 28.8631 29.4283 28.9358 29.48 28.9902C29.5317 29.0446 29.6029 29.0762 29.678 29.078C29.753 29.0799 29.8257 29.0519 29.88 29.0002C30.3152 28.7274 30.7698 28.4868 31.24 28.2802C31.53 28.1302 31.8 27.9702 32.1 27.8502C32.4198 27.705 32.7554 27.5976 33.1 27.5302C33.1429 27.5289 33.1852 27.5191 33.2242 27.5012C33.2632 27.4832 33.2982 27.4577 33.3271 27.4259C33.3561 27.3942 33.3783 27.357 33.3925 27.3165C33.4068 27.276 33.4127 27.233 33.41 27.1902C33.4056 27.1138 33.3739 27.0415 33.3207 26.9864C33.2674 26.9314 33.1963 26.8972 33.12 26.8902Z" fill="#343434"/>
</g>
<path d="M57.6768 28.251V30H50.8828V28.251H57.6768ZM51.5068 17.2031V30H49.3008V17.2031H51.5068ZM56.7891 22.5469V24.2695H50.8828V22.5469H56.7891ZM57.6328 17.2031V18.9609H50.8828V17.2031H57.6328ZM61.3682 22.5205V30H59.25V20.4902H61.2451L61.3682 22.5205ZM60.9902 24.8936L60.3047 24.8848C60.3105 24.2109 60.4043 23.5928 60.5859 23.0303C60.7734 22.4678 61.0312 21.9844 61.3594 21.5801C61.6934 21.1758 62.0918 20.8652 62.5547 20.6484C63.0176 20.4258 63.5332 20.3145 64.1016 20.3145C64.5586 20.3145 64.9717 20.3789 65.3408 20.5078C65.7158 20.6309 66.0352 20.833 66.2988 21.1143C66.5684 21.3955 66.7734 21.7617 66.9141 22.2129C67.0547 22.6582 67.125 23.2061 67.125 23.8564V30H64.998V23.8477C64.998 23.3906 64.9307 23.0303 64.7959 22.7666C64.667 22.4971 64.4766 22.3066 64.2246 22.1953C63.9785 22.0781 63.6709 22.0195 63.3018 22.0195C62.9385 22.0195 62.6133 22.0957 62.3262 22.248C62.0391 22.4004 61.7959 22.6084 61.5967 22.8721C61.4033 23.1357 61.2539 23.4404 61.1484 23.7861C61.043 24.1318 60.9902 24.501 60.9902 24.8936ZM75.3779 20.4902H77.3027V29.7363C77.3027 30.5918 77.1211 31.3184 76.7578 31.916C76.3945 32.5137 75.8877 32.9678 75.2373 33.2783C74.5869 33.5947 73.834 33.7529 72.9785 33.7529C72.6152 33.7529 72.2109 33.7002 71.7656 33.5947C71.3262 33.4893 70.8984 33.3193 70.4824 33.085C70.0723 32.8564 69.7295 32.5547 69.4541 32.1797L70.4473 30.9316C70.7871 31.3359 71.1621 31.6318 71.5723 31.8193C71.9824 32.0068 72.4131 32.1006 72.8643 32.1006C73.3506 32.1006 73.7637 32.0098 74.1035 31.8281C74.4492 31.6523 74.7158 31.3916 74.9033 31.0459C75.0908 30.7002 75.1846 30.2783 75.1846 29.7803V22.6436L75.3779 20.4902ZM68.918 25.3506V25.166C68.918 24.4453 69.0059 23.7891 69.1816 23.1973C69.3574 22.5996 69.6094 22.0869 69.9375 21.6592C70.2656 21.2256 70.6641 20.8945 71.1328 20.666C71.6016 20.4316 72.1318 20.3145 72.7236 20.3145C73.3389 20.3145 73.8633 20.4258 74.2969 20.6484C74.7363 20.8711 75.1025 21.1904 75.3955 21.6064C75.6885 22.0166 75.917 22.5088 76.0811 23.083C76.251 23.6514 76.377 24.2842 76.459 24.9814V25.5703C76.3828 26.25 76.2539 26.8711 76.0723 27.4336C75.8906 27.9961 75.6504 28.4824 75.3516 28.8926C75.0527 29.3027 74.6836 29.6191 74.2441 29.8418C73.8105 30.0645 73.2979 30.1758 72.7061 30.1758C72.126 30.1758 71.6016 30.0557 71.1328 29.8154C70.6699 29.5752 70.2715 29.2383 69.9375 28.8047C69.6094 28.3711 69.3574 27.8613 69.1816 27.2754C69.0059 26.6836 68.918 26.042 68.918 25.3506ZM71.0361 25.166V25.3506C71.0361 25.7842 71.0771 26.1885 71.1592 26.5635C71.2471 26.9385 71.3789 27.2695 71.5547 27.5566C71.7363 27.8379 71.9648 28.0605 72.2402 28.2246C72.5215 28.3828 72.8525 28.4619 73.2334 28.4619C73.7314 28.4619 74.1387 28.3564 74.4551 28.1455C74.7773 27.9346 75.0234 27.6504 75.1934 27.293C75.3691 26.9297 75.4922 26.5254 75.5625 26.0801V24.4893C75.5273 24.1436 75.4541 23.8213 75.3428 23.5225C75.2373 23.2236 75.0938 22.9629 74.9121 22.7402C74.7305 22.5117 74.502 22.3359 74.2266 22.2129C73.9512 22.084 73.626 22.0195 73.251 22.0195C72.8701 22.0195 72.5391 22.1016 72.2578 22.2656C71.9766 22.4297 71.7451 22.6553 71.5635 22.9424C71.3877 23.2295 71.2559 23.5635 71.168 23.9443C71.0801 24.3252 71.0361 24.7324 71.0361 25.166ZM81.7676 16.5V30H79.6406V16.5H81.7676ZM86.3555 20.4902V30H84.2285V20.4902H86.3555ZM84.0879 17.9941C84.0879 17.6719 84.1934 17.4053 84.4043 17.1943C84.6211 16.9775 84.9199 16.8691 85.3008 16.8691C85.6758 16.8691 85.9717 16.9775 86.1885 17.1943C86.4053 17.4053 86.5137 17.6719 86.5137 17.9941C86.5137 18.3105 86.4053 18.5742 86.1885 18.7852C85.9717 18.9961 85.6758 19.1016 85.3008 19.1016C84.9199 19.1016 84.6211 18.9961 84.4043 18.7852C84.1934 18.5742 84.0879 18.3105 84.0879 17.9941ZM94.0107 27.4248C94.0107 27.2139 93.958 27.0234 93.8525 26.8535C93.7471 26.6777 93.5449 26.5195 93.2461 26.3789C92.9531 26.2383 92.5195 26.1094 91.9453 25.9922C91.4414 25.8809 90.9785 25.749 90.5566 25.5967C90.1406 25.4385 89.7832 25.248 89.4844 25.0254C89.1855 24.8027 88.9541 24.5391 88.79 24.2344C88.626 23.9297 88.5439 23.5781 88.5439 23.1797C88.5439 22.793 88.6289 22.4268 88.7988 22.0811C88.9688 21.7354 89.2119 21.4307 89.5283 21.167C89.8447 20.9033 90.2285 20.6953 90.6797 20.543C91.1367 20.3906 91.6465 20.3145 92.209 20.3145C93.0059 20.3145 93.6885 20.4492 94.2568 20.7188C94.8311 20.9824 95.2705 21.3428 95.5752 21.7998C95.8799 22.251 96.0322 22.7607 96.0322 23.3291H93.9141C93.9141 23.0771 93.8496 22.8428 93.7207 22.626C93.5977 22.4033 93.4102 22.2246 93.1582 22.0898C92.9062 21.9492 92.5898 21.8789 92.209 21.8789C91.8457 21.8789 91.5439 21.9375 91.3037 22.0547C91.0693 22.166 90.8936 22.3125 90.7764 22.4941C90.665 22.6758 90.6094 22.875 90.6094 23.0918C90.6094 23.25 90.6387 23.3936 90.6973 23.5225C90.7617 23.6455 90.8672 23.7598 91.0137 23.8652C91.1602 23.9648 91.3594 24.0586 91.6113 24.1465C91.8691 24.2344 92.1914 24.3193 92.5781 24.4014C93.3047 24.5537 93.9287 24.75 94.4502 24.9902C94.9775 25.2246 95.3818 25.5293 95.6631 25.9043C95.9443 26.2734 96.085 26.7422 96.085 27.3105C96.085 27.7324 95.9941 28.1191 95.8125 28.4707C95.6367 28.8164 95.3789 29.1182 95.0391 29.376C94.6992 29.6279 94.292 29.8242 93.8174 29.9648C93.3486 30.1055 92.8213 30.1758 92.2354 30.1758C91.374 30.1758 90.6445 30.0234 90.0469 29.7188C89.4492 29.4082 88.9951 29.0127 88.6846 28.5322C88.3799 28.0459 88.2275 27.542 88.2275 27.0205H90.2754C90.2988 27.4131 90.4072 27.7266 90.6006 27.9609C90.7998 28.1895 91.0459 28.3564 91.3389 28.4619C91.6377 28.5615 91.9453 28.6113 92.2617 28.6113C92.6426 28.6113 92.9619 28.5615 93.2197 28.4619C93.4775 28.3564 93.6738 28.2158 93.8086 28.04C93.9434 27.8584 94.0107 27.6533 94.0107 27.4248ZM100.031 16.5V30H97.9219V16.5H100.031ZM99.6621 24.8936L98.9766 24.8848C98.9824 24.2285 99.0732 23.6221 99.249 23.0654C99.4307 22.5088 99.6826 22.0254 100.005 21.6152C100.333 21.1992 100.726 20.8799 101.183 20.6572C101.64 20.4287 102.146 20.3145 102.703 20.3145C103.172 20.3145 103.594 20.3789 103.969 20.5078C104.35 20.6367 104.678 20.8447 104.953 21.1318C105.229 21.4131 105.437 21.7822 105.577 22.2393C105.724 22.6904 105.797 23.2412 105.797 23.8916V30H103.67V23.874C103.67 23.417 103.603 23.0537 103.468 22.7842C103.339 22.5146 103.148 22.3213 102.896 22.2041C102.645 22.0811 102.337 22.0195 101.974 22.0195C101.593 22.0195 101.256 22.0957 100.963 22.248C100.676 22.4004 100.436 22.6084 100.242 22.8721C100.049 23.1357 99.9023 23.4404 99.8027 23.7861C99.709 24.1318 99.6621 24.501 99.6621 24.8936Z" fill="#343434"/>
<defs>
<clipPath id="clip0_5099_240">
<rect width="24" height="24" fill="white" transform="translate(16 11.5)"/>
</clipPath>
</defs>
</svg>
