<svg width="173" height="41" viewBox="0 0 173 41" fill="none" xmlns="http://www.w3.org/2000/svg">
<rect y="0.5" width="40" height="40" rx="20" fill="#003366"/>
<path fill-rule="evenodd" clip-rule="evenodd" d="M17.2159 14.375L25.5682 14.375C25.7159 14.375 25.8575 14.4337 25.9619 14.5381C26.0663 14.6425 26.125 14.7841 26.125 14.9318V23.2841C26.125 23.5916 25.8757 23.8409 25.5682 23.8409C25.2607 23.8409 25.0114 23.5916 25.0114 23.2841V16.2761L14.8255 26.4619C14.6081 26.6794 14.2555 26.6794 14.0381 26.4619C13.8206 26.2445 13.8206 25.8919 14.0381 25.6745L24.2239 15.4886L17.2159 15.4886C16.9084 15.4886 16.6591 15.2393 16.6591 14.9318C16.6591 14.6243 16.9084 14.375 17.2159 14.375Z" fill="#FBFBFB"/>
<path d="M60.3516 25.5566V27.5H53.2129V25.5566H60.3516ZM53.8965 13.2812V27.5H51.4453V13.2812H53.8965ZM71.5527 25.5566V27.5H64.0039V25.5566H71.5527ZM64.6973 13.2812V27.5H62.2461V13.2812H64.6973ZM70.5664 19.2188V21.1328H64.0039V19.2188H70.5664ZM71.5039 13.2812V15.2344H64.0039V13.2812H71.5039ZM79.0918 15.1758L74.8438 27.5H72.2754L77.627 13.2812H79.2676L79.0918 15.1758ZM82.6465 27.5L78.3887 15.1758L78.2031 13.2812H79.8535L85.2246 27.5H82.6465ZM82.4414 22.2266V24.1699H74.707V22.2266H82.4414ZM86.8164 13.2812H91.8457C92.9264 13.2812 93.8477 13.444 94.6094 13.7695C95.3711 14.0951 95.9538 14.5768 96.3574 15.2148C96.7676 15.8464 96.9727 16.6276 96.9727 17.5586C96.9727 18.2682 96.8424 18.8932 96.582 19.4336C96.3216 19.974 95.9538 20.4297 95.4785 20.8008C95.0033 21.1654 94.4368 21.4486 93.7793 21.6504L93.0371 22.0117H88.5156L88.4961 20.0684H91.8848C92.4707 20.0684 92.959 19.9642 93.3496 19.7559C93.7402 19.5475 94.0332 19.2643 94.2285 18.9062C94.4303 18.5417 94.5312 18.1315 94.5312 17.6758C94.5312 17.181 94.4336 16.7513 94.2383 16.3867C94.0495 16.0156 93.7565 15.7324 93.3594 15.5371C92.9622 15.3353 92.4577 15.2344 91.8457 15.2344H89.2676V27.5H86.8164V13.2812ZM94.9316 27.5L91.5918 21.1133L94.1602 21.1035L97.5488 27.373V27.5H94.9316ZM110.693 13.2812V27.5H108.242L101.865 17.3145V27.5H99.4141V13.2812H101.865L108.262 23.4863V13.2812H110.693ZM119.59 13.2812H121.777L125.889 24.248L129.99 13.2812H132.178L126.748 27.5H125.01L119.59 13.2812ZM118.594 13.2812H120.674L121.035 22.7734V27.5H118.594V13.2812ZM131.094 13.2812H133.184V27.5H130.732V22.7734L131.094 13.2812ZM147.432 20V20.7812C147.432 21.8555 147.292 22.819 147.012 23.6719C146.732 24.5247 146.331 25.2507 145.811 25.8496C145.296 26.4486 144.678 26.9076 143.955 27.2266C143.232 27.5391 142.432 27.6953 141.553 27.6953C140.68 27.6953 139.883 27.5391 139.16 27.2266C138.444 26.9076 137.822 26.4486 137.295 25.8496C136.768 25.2507 136.357 24.5247 136.064 23.6719C135.778 22.819 135.635 21.8555 135.635 20.7812V20C135.635 18.9258 135.778 17.9655 136.064 17.1191C136.351 16.2663 136.755 15.5404 137.275 14.9414C137.803 14.3359 138.424 13.877 139.141 13.5645C139.863 13.2454 140.661 13.0859 141.533 13.0859C142.412 13.0859 143.213 13.2454 143.936 13.5645C144.658 13.877 145.28 14.3359 145.801 14.9414C146.322 15.5404 146.722 16.2663 147.002 17.1191C147.288 17.9655 147.432 18.9258 147.432 20ZM144.98 20.7812V19.9805C144.98 19.1862 144.902 18.4863 144.746 17.8809C144.596 17.2689 144.372 16.7578 144.072 16.3477C143.779 15.931 143.418 15.6185 142.988 15.4102C142.559 15.1953 142.074 15.0879 141.533 15.0879C140.993 15.0879 140.511 15.1953 140.088 15.4102C139.665 15.6185 139.303 15.931 139.004 16.3477C138.711 16.7578 138.486 17.2689 138.33 17.8809C138.174 18.4863 138.096 19.1862 138.096 19.9805V20.7812C138.096 21.5755 138.174 22.2786 138.33 22.8906C138.486 23.5026 138.714 24.0202 139.014 24.4434C139.32 24.86 139.684 25.1758 140.107 25.3906C140.531 25.599 141.012 25.7031 141.553 25.7031C142.1 25.7031 142.585 25.599 143.008 25.3906C143.431 25.1758 143.789 24.86 144.082 24.4434C144.375 24.0202 144.596 23.5026 144.746 22.8906C144.902 22.2786 144.98 21.5755 144.98 20.7812ZM149.883 13.2812H154.912C155.993 13.2812 156.914 13.444 157.676 13.7695C158.438 14.0951 159.02 14.5768 159.424 15.2148C159.834 15.8464 160.039 16.6276 160.039 17.5586C160.039 18.2682 159.909 18.8932 159.648 19.4336C159.388 19.974 159.02 20.4297 158.545 20.8008C158.07 21.1654 157.503 21.4486 156.846 21.6504L156.104 22.0117H151.582L151.562 20.0684H154.951C155.537 20.0684 156.025 19.9642 156.416 19.7559C156.807 19.5475 157.1 19.2643 157.295 18.9062C157.497 18.5417 157.598 18.1315 157.598 17.6758C157.598 17.181 157.5 16.7513 157.305 16.3867C157.116 16.0156 156.823 15.7324 156.426 15.5371C156.029 15.3353 155.524 15.2344 154.912 15.2344H152.334V27.5H149.883V13.2812ZM157.998 27.5L154.658 21.1133L157.227 21.1035L160.615 27.373V27.5H157.998ZM171.787 25.5566V27.5H164.238V25.5566H171.787ZM164.932 13.2812V27.5H162.48V13.2812H164.932ZM170.801 19.2188V21.1328H164.238V19.2188H170.801ZM171.738 13.2812V15.2344H164.238V13.2812H171.738Z" fill="#343434"/>
</svg>
