<svg width="372" height="64" viewBox="0 0 372 64" fill="none" xmlns="http://www.w3.org/2000/svg">
<path d="M185.796 10.2768C186.04 10.2769 186.273 10.1823 186.448 10.0132C186.622 9.84397 186.724 9.61355 186.731 9.37085C187.017 8.2384 187.24 7.09081 187.398 5.93347C187.438 5.17013 187.438 4.40523 187.398 3.64189C187.354 2.58109 187.128 1.53566 186.731 0.550915C186.675 0.364196 186.55 0.205522 186.382 0.106691C186.213 0.00786115 186.014 -0.0238228 185.823 0.017989C185.61 0.017989 185.262 0.23116 184.996 0.844025C184.761 1.72148 184.573 2.61099 184.435 3.50866C184.394 4.27198 184.394 5.03691 184.435 5.80024C184.435 6.97268 184.809 8.06518 184.969 9.21097C184.95 9.33561 184.957 9.46274 184.989 9.58469C185.021 9.70663 185.077 9.82086 185.154 9.92048C185.232 10.0201 185.328 10.103 185.439 10.1643C185.549 10.2255 185.671 10.2638 185.796 10.2768Z" fill="#003366"/>
<path d="M170.019 16.6717C170.19 16.4973 170.286 16.263 170.286 16.0188C170.286 15.7747 170.19 15.5403 170.019 15.366C169.24 14.1466 168.346 13.0044 167.349 11.9553C166.655 11.3158 165.828 10.8361 165.08 10.2499L162.944 9.18407C162.649 9.00105 162.336 8.84923 162.01 8.73108C161.262 8.73108 160.942 8.94425 160.889 9.26401C160.837 9.35799 160.81 9.46336 160.81 9.57044C160.81 9.67752 160.837 9.78288 160.889 9.87687C161.635 10.8123 162.438 11.7021 163.291 12.5415C163.985 13.1544 164.626 13.8205 165.374 14.3801C166.121 14.9397 167.67 15.8456 168.764 16.6983C168.939 16.8501 169.165 16.9315 169.397 16.9266C169.629 16.9216 169.85 16.8308 170.019 16.6717Z" fill="#003366"/>
<path d="M164.146 31.4609C162.863 31.1373 161.544 30.9849 160.221 31.0079C159.487 31.0115 158.754 31.0829 158.032 31.221C157.054 31.492 156.053 31.6705 155.042 31.754C154.937 31.7258 154.827 31.7186 154.719 31.7329C154.611 31.7471 154.507 31.7824 154.413 31.8369C154.319 31.8914 154.236 31.9639 154.17 32.0502C154.104 32.1366 154.056 32.2351 154.028 32.3402C154 32.4434 153.993 32.5513 154.007 32.6572C154.022 32.7632 154.058 32.8651 154.112 32.9571C154.167 33.049 154.24 33.129 154.326 33.1924C154.413 33.2558 154.511 33.3013 154.615 33.3261C155.865 33.9211 157.235 34.222 158.619 34.2054C159.373 34.193 160.123 34.1127 160.862 33.9656C162.01 33.7524 163.024 33.3794 163.985 33.2994C164.232 33.3146 164.475 33.2345 164.664 33.0758C164.853 32.917 164.973 32.6918 165 32.4468C165.015 32.2036 164.934 31.9644 164.774 31.7801C164.614 31.5959 164.389 31.4813 164.146 31.4609Z" fill="#003366"/>
<path d="M210.437 8.01208C210.283 7.8639 210.078 7.78113 209.863 7.78113C209.649 7.78113 209.444 7.8639 209.289 8.01208C208.275 8.57165 207.261 9.02464 206.273 9.6908C205.873 9.96041 205.489 10.2541 205.125 10.5701L204.11 11.5827C203.336 12.4354 202.642 13.3147 201.895 14.2473C201.807 14.3318 201.737 14.4332 201.689 14.5454C201.641 14.6576 201.616 14.7782 201.616 14.9002C201.616 15.0221 201.641 15.1427 201.689 15.2549C201.737 15.3671 201.807 15.4685 201.895 15.553C202.068 15.716 202.297 15.8068 202.535 15.8068C202.773 15.8068 203.003 15.716 203.176 15.553C204.19 14.9668 205.152 14.4338 206.113 13.7677L207.287 12.915C207.66 12.605 208.008 12.2664 208.328 11.9024C209.103 11.0498 209.717 10.1171 210.437 9.23781C210.527 9.16278 210.599 9.06902 210.649 8.96313C210.698 8.85724 210.724 8.7418 210.724 8.62494C210.724 8.50808 210.698 8.39264 210.649 8.28676C210.599 8.18087 210.527 8.08711 210.437 8.01208Z" fill="#003366"/>
<path d="M215.537 31.4608C215.216 31.4608 214.923 31.3275 214.602 31.3009C214.158 31.261 213.712 31.261 213.267 31.3009C212.093 31.4608 211.052 31.8605 209.904 32.1269C209.686 32.164 209.489 32.2766 209.347 32.4449C209.205 32.6131 209.127 32.8261 209.127 33.0462C209.127 33.2664 209.205 33.4794 209.347 33.6476C209.489 33.8158 209.686 33.9285 209.904 33.9655C211.055 34.2097 212.225 34.3612 213.401 34.4185C213.861 34.4107 214.318 34.3481 214.762 34.232C215.072 34.1586 215.376 34.0606 215.67 33.9389C216.294 33.7742 216.895 33.5325 217.459 33.2194C217.806 32.8997 218.046 32.6599 217.993 32.3668C218.073 31.5407 216.925 31.7006 215.537 31.4608Z" fill="#003366"/>
<path d="M194.046 16.006C190.215 13.9985 185.784 13.4492 181.578 14.4605C178.359 15.3654 175.442 17.1161 173.132 19.5299C170.821 21.9437 169.202 24.9321 168.444 28.1834C167.95 30.4664 167.95 32.8284 168.444 35.1114C168.903 37.3647 169.811 39.5031 171.113 41.3999C171.499 41.9474 171.937 42.4561 172.421 42.9188C173.334 43.7687 174.369 44.4782 175.492 45.0238C175.591 45.4069 175.645 45.8005 175.652 46.1963V48.8609V49.8202C174.929 50.35 174.396 51.0972 174.13 51.9519C173.89 52.7187 173.835 53.5314 173.97 54.3234C174.049 54.9712 174.298 55.5868 174.691 56.1087C174.966 56.44 175.29 56.7275 175.652 56.9614C175.04 57.7203 174.685 58.6531 174.637 59.626C174.571 60.1573 174.626 60.6965 174.797 61.2038C174.968 61.7112 175.251 62.1737 175.625 62.5571C176.323 63.1877 177.182 63.6121 178.108 63.7829C179.316 63.9821 180.543 64.0447 181.765 63.9694C182.752 63.9724 183.736 63.8742 184.702 63.6763C184.8 63.5855 184.875 63.4731 184.921 63.3482C184.967 63.2233 184.984 63.0892 184.969 62.9568C184.953 62.8243 184.906 62.6974 184.831 62.5863C184.757 62.4752 184.658 62.3831 184.542 62.3173C184.151 62.284 183.758 62.284 183.367 62.3173H181.765C180.725 62.3138 179.687 62.2066 178.668 61.9976C178.128 61.8618 177.637 61.5753 177.253 61.1715C177.126 61.0074 177.039 60.8163 176.997 60.6131C176.955 60.4099 176.961 60.1998 177.013 59.9991C177.066 59.4424 177.293 58.9163 177.662 58.4955C178.031 58.0747 178.523 57.7803 179.069 57.6542C179.87 57.6542 181.418 58.0539 183.26 58.1871C183.945 58.2272 184.631 58.2272 185.316 58.1871H187.131C188.561 57.9489 189.978 57.6376 191.376 57.2545L192.097 57.068C192.125 57.2535 192.125 57.4421 192.097 57.6276C192.106 58.2723 191.997 58.9133 191.776 59.5194C191.307 60.3593 190.576 61.0234 189.694 61.4113C189.316 61.6917 188.882 61.8869 188.421 61.9835C187.96 62.0801 187.483 62.0758 187.024 61.9709C186.8 61.8676 186.545 61.8543 186.312 61.9336C186.078 62.013 185.884 62.179 185.77 62.3972C185.667 62.6169 185.655 62.8677 185.735 63.0964C185.814 63.3252 185.98 63.514 186.197 63.623C186.907 63.8787 187.665 63.9755 188.417 63.9064C189.169 63.8373 189.897 63.6041 190.548 63.2233C192.006 62.6996 193.24 61.6934 194.046 60.3721C194.521 59.3196 194.732 58.167 194.66 57.0147C194.631 56.2732 194.359 55.5616 193.885 54.9896C194.27 54.6663 194.595 54.2786 194.846 53.8438C195.12 53.339 195.223 52.7596 195.14 52.1917C195.062 51.6071 194.856 51.0466 194.538 50.5496C194.22 50.0525 193.797 49.6308 193.298 49.3139C193.298 48.4346 193.111 47.4487 193.138 46.4894C193.111 46.2592 193.111 46.0268 193.138 45.7966C193.72 45.6061 194.269 45.3275 194.766 44.9706C195.647 44.331 196.555 43.6915 197.436 42.9721C198.025 42.4593 198.57 41.8977 199.065 41.2934C200.731 39.0755 201.888 36.5194 202.455 33.8057C203.138 31.0674 203.138 28.2038 202.455 25.4654C201.771 23.4008 200.673 21.497 199.227 19.8705C197.781 18.2441 196.018 16.9291 194.046 16.006ZM187.078 54.9629H185.236H183.207C181.3 55.1918 179.373 55.1918 177.467 54.9629C177.253 54.9629 177.12 54.6965 176.987 54.5366C176.956 54.3781 176.956 54.2154 176.987 54.0569C176.905 53.7064 176.905 53.3417 176.987 52.9911C177.084 52.7302 177.262 52.5066 177.494 52.3516C178.07 51.9957 178.717 51.7684 179.389 51.6854C180.646 51.5015 181.911 51.3859 183.18 51.339C185.409 51.0297 187.668 50.985 189.908 51.2058C190.468 51.2058 192.39 52.1118 192.257 53.0444C192.13 53.5946 191.841 54.0944 191.427 54.4791C191.013 54.8638 190.493 55.1159 189.934 55.2027C189.107 55.2027 188.146 55.0162 187.078 54.9629ZM199.946 33.3261C199.547 35.6962 198.636 37.9513 197.276 39.9344C196.885 40.445 196.457 40.9259 195.994 41.3733C195.236 42.0641 194.433 42.705 193.592 43.2918C193.325 43.505 192.23 43.8514 191.856 44.1712C191.638 44.3276 191.478 44.5528 191.403 44.8107C191.22 45.3597 191.148 45.9391 191.189 46.516C191.204 47.1582 191.257 47.7989 191.349 48.4346C188.611 47.9262 185.81 47.8453 183.047 48.1948C181.65 48.2445 180.259 48.387 178.882 48.6211C178.419 48.7224 177.964 48.856 177.52 49.0208V48.781C177.52 48.0349 177.681 46.7559 177.654 45.69C177.654 45.1127 177.536 44.5414 177.307 44.0113C177.159 43.7588 176.959 43.5407 176.72 43.3718C176.186 43.0787 175.358 42.6523 175.198 42.6523C174.758 42.3337 174.347 41.977 173.97 41.5865C173.598 41.1945 173.267 40.766 172.982 40.3074C171.906 38.585 171.189 36.6637 170.873 34.6584C170.548 32.6985 170.639 30.6923 171.14 28.7696C171.895 26.0538 173.349 23.5827 175.358 21.6017C177.308 19.604 179.761 18.168 182.459 17.4449C185.931 16.6122 189.586 17.047 192.764 18.6706C194.366 19.3988 195.803 20.4419 196.991 21.7376C198.18 23.0333 199.093 24.555 199.679 26.2115C200.342 28.5267 200.434 30.9679 199.946 33.3261Z" fill="#343434"/>
<path d="M193.325 26.4247C192.95 25.5872 192.446 24.8139 191.83 24.1331C191.354 23.669 190.815 23.2743 190.228 22.9606C189.624 22.6015 188.951 22.3745 188.253 22.2945C187.724 22.1937 187.18 22.1937 186.651 22.2945C186.01 22.5876 185.717 22.9873 185.957 23.5469C186.197 24.1064 187.238 23.8933 187.799 24.1331C188.18 24.2934 188.518 24.5397 188.787 24.8525C189.085 25.174 189.353 25.5218 189.588 25.8917C190.014 26.5328 190.363 27.2214 190.629 27.9435C190.958 28.6814 191.218 29.4487 191.403 30.2351C191.655 31.2771 191.655 32.3639 191.403 33.406C191.316 33.6358 191.323 33.8906 191.423 34.1151C191.523 34.3396 191.708 34.5157 191.937 34.6051C192.168 34.6852 192.42 34.6747 192.643 34.5757C192.866 34.4767 193.043 34.2967 193.138 34.0722C193.919 32.4113 194.18 30.5539 193.886 28.7429C193.802 27.9488 193.614 27.1693 193.325 26.4247Z" fill="#343434"/>
</svg>
