<svg width="116" height="47" viewBox="0 0 116 47" fill="none" xmlns="http://www.w3.org/2000/svg">
<rect width="116" height="47" rx="23.5" fill="#EFF3F7"/>
<g clip-path="url(#clip0_5099_233)">
<path fill-rule="evenodd" clip-rule="evenodd" d="M25.8599 26.24C26.6873 26.5135 27.5631 26.6089 28.4299 26.52C29.4575 26.4869 30.455 26.1649 31.3079 25.5908C32.1609 25.0168 32.8348 24.2139 33.2523 23.2744C33.6699 22.3349 33.8142 21.2967 33.6688 20.2789C33.5233 19.2611 33.0939 18.305 32.4299 17.52C31.8552 16.8392 31.1292 16.3023 30.3099 15.9523C29.4906 15.6023 28.6008 15.4488 27.7116 15.5042C26.8224 15.5596 25.9585 15.8223 25.1889 16.2713C24.4194 16.7203 23.7657 17.3431 23.2799 18.09C21.6699 20.48 22.5099 23.98 24.1099 25.01C24.1775 25.0578 24.2614 25.0767 24.3429 25.0626C24.4245 25.0485 24.4972 25.0026 24.5449 24.935C24.5926 24.8674 24.6116 24.7836 24.5975 24.702C24.5834 24.6204 24.5375 24.5478 24.4699 24.5C23.1899 23.6 22.6099 20.5 24.0599 18.61C24.4806 18.0226 25.0281 17.5376 25.6619 17.1908C26.2958 16.8441 26.9995 16.6446 27.721 16.6071C28.4425 16.5697 29.1632 16.6952 29.8295 16.9744C30.4958 17.2536 31.0907 17.6794 31.5699 18.22C33.9399 21.03 32.5699 25.3 28.3599 25.79C27.5938 25.8977 26.8136 25.8432 26.0699 25.63C26.0271 25.5973 25.9772 25.5752 25.9242 25.5655C25.8712 25.5559 25.8166 25.559 25.7651 25.5745C25.7135 25.5901 25.6664 25.6177 25.6275 25.655C25.5887 25.6924 25.5593 25.7384 25.5418 25.7894C25.5243 25.8403 25.5191 25.8947 25.5267 25.948C25.5343 26.0013 25.5545 26.0521 25.5855 26.0961C25.6166 26.1401 25.6577 26.1761 25.7054 26.2011C25.7531 26.2261 25.806 26.2395 25.8599 26.24Z" fill="#343434"/>
<path fill-rule="evenodd" clip-rule="evenodd" d="M39.6399 17.3C39.5199 16.21 39.5699 14.03 38.7199 13.43C36.8099 12.07 32.7199 12.43 29.9099 12.34C26.4299 12.22 22.6999 12.5 19.2899 12.59C19.2411 12.5815 19.191 12.5838 19.1432 12.5967C19.0953 12.6097 19.0509 12.6329 19.0129 12.6648C18.975 12.6967 18.9445 12.7366 18.9236 12.7815C18.9027 12.8264 18.8918 12.8754 18.8918 12.925C18.8918 12.9745 18.9027 13.0235 18.9236 13.0684C18.9445 13.1134 18.975 13.1532 19.0129 13.1851C19.0509 13.217 19.0953 13.2403 19.1432 13.2532C19.191 13.2661 19.2411 13.2684 19.2899 13.26C22.7499 13.26 26.3599 13 29.8699 13.18C32.2999 13.31 36.5399 13.05 38.1299 14.18C38.5099 14.46 38.5199 16.64 38.5999 17.38C38.9381 20.0681 38.9616 22.7864 38.6699 25.48C38.6213 26.3735 38.4737 27.2589 38.2299 28.12C35.8299 29.34 18.5199 30.36 17.4799 28.68C17.0985 27.3278 16.8836 25.9342 16.8399 24.53C16.6977 20.9058 16.8986 17.2763 17.4399 13.69C17.7299 13.42 17.3199 12.98 17.0399 13.25C16.6099 13.64 16.6899 14.88 16.6199 15.32C16.054 18.6818 15.8795 22.0979 16.0999 25.5C16.1476 26.7474 16.3525 27.9839 16.7099 29.18C17.5499 30.59 23.0599 30.64 24.7099 30.65C24.0488 31.5036 23.7313 32.5739 23.8199 33.65L21.6599 33.8C21.5804 33.8 21.5041 33.8316 21.4478 33.8878C21.3915 33.9441 21.3599 34.0204 21.3599 34.1C21.3599 34.1795 21.3915 34.2558 21.4478 34.3121C21.5041 34.3684 21.5804 34.4 21.6599 34.4C23.6599 34.47 25.1799 34.67 27.6599 34.65C30.1399 34.63 31.7199 34.42 33.7299 34.27C33.7788 34.2784 33.8289 34.2761 33.8767 34.2632C33.9246 34.2503 33.969 34.227 34.007 34.1951C34.0449 34.1632 34.0754 34.1234 34.0963 34.0784C34.1172 34.0335 34.128 33.9845 34.128 33.935C34.128 33.8854 34.1172 33.8364 34.0963 33.7915C34.0754 33.7466 34.0449 33.7067 34.007 33.6748C33.969 33.6429 33.9246 33.6197 33.8767 33.6067C33.8289 33.5938 33.7788 33.5915 33.7299 33.6H31.8899C31.7675 32.4943 31.4276 31.4238 30.8899 30.45C33.1622 30.3271 35.4219 30.0329 37.6499 29.57C39.0999 29.2 39.3599 28.83 39.5499 27.76C40.1283 24.2996 40.1587 20.7698 39.6399 17.3ZM31.1199 33.6C28.2699 33.53 26.8699 33.51 24.5699 33.6C24.7299 33.21 24.9699 32.69 25.0799 32.31C25.2226 31.7686 25.3229 31.2169 25.3799 30.66C25.3799 30.54 25.6499 30.74 30.0599 30.47C30.1489 31.5849 30.5131 32.6604 31.1199 33.6Z" fill="#003366"/>
<path fill-rule="evenodd" clip-rule="evenodd" d="M25.36 21.16C25.36 21.16 24.78 21.33 25.01 21.66C25.4 22.25 26.07 23.28 26.73 23.32C27.86 23.38 29.19 20.25 29.67 19.23C29.8191 19.0741 29.9138 18.8741 29.94 18.66C29.9331 18.588 29.904 18.5199 29.8568 18.4651C29.8096 18.4103 29.7466 18.3715 29.6765 18.354C29.6063 18.3364 29.5325 18.341 29.4651 18.3672C29.3976 18.3933 29.34 18.4397 29.3 18.5C29.06 18.78 26.62 22.32 26.68 22.41C26.49 22.44 25.5 21.25 25.36 21.16Z" fill="#003366"/>
</g>
<path d="M59.5049 23.25V23.9531C59.5049 24.9199 59.3789 25.7871 59.127 26.5547C58.875 27.3223 58.5146 27.9756 58.0459 28.5146C57.583 29.0537 57.0264 29.4668 56.376 29.7539C55.7256 30.0352 55.0049 30.1758 54.2139 30.1758C53.4287 30.1758 52.7109 30.0352 52.0605 29.7539C51.416 29.4668 50.8564 29.0537 50.3818 28.5146C49.9072 27.9756 49.5381 27.3223 49.2744 26.5547C49.0166 25.7871 48.8877 24.9199 48.8877 23.9531V23.25C48.8877 22.2832 49.0166 21.4189 49.2744 20.6572C49.5322 19.8896 49.8955 19.2363 50.3643 18.6973C50.8389 18.1523 51.3984 17.7393 52.043 17.458C52.6934 17.1709 53.4111 17.0273 54.1963 17.0273C54.9873 17.0273 55.708 17.1709 56.3584 17.458C57.0088 17.7393 57.5684 18.1523 58.0371 18.6973C58.5059 19.2363 58.8662 19.8896 59.1182 20.6572C59.376 21.4189 59.5049 22.2832 59.5049 23.25ZM57.2988 23.9531V23.2324C57.2988 22.5176 57.2285 21.8877 57.0879 21.3428C56.9531 20.792 56.751 20.332 56.4814 19.9629C56.2178 19.5879 55.8926 19.3066 55.5059 19.1191C55.1191 18.9258 54.6826 18.8291 54.1963 18.8291C53.71 18.8291 53.2764 18.9258 52.8955 19.1191C52.5146 19.3066 52.1895 19.5879 51.9199 19.9629C51.6562 20.332 51.4541 20.792 51.3135 21.3428C51.1729 21.8877 51.1025 22.5176 51.1025 23.2324V23.9531C51.1025 24.668 51.1729 25.3008 51.3135 25.8516C51.4541 26.4023 51.6592 26.8682 51.9287 27.249C52.2041 27.624 52.5322 27.9082 52.9131 28.1016C53.2939 28.2891 53.7275 28.3828 54.2139 28.3828C54.7061 28.3828 55.1426 28.2891 55.5234 28.1016C55.9043 27.9082 56.2266 27.624 56.4902 27.249C56.7539 26.8682 56.9531 26.4023 57.0879 25.8516C57.2285 25.3008 57.2988 24.668 57.2988 23.9531ZM63.6006 22.5205V30H61.4824V20.4902H63.4775L63.6006 22.5205ZM63.2227 24.8936L62.5371 24.8848C62.543 24.2109 62.6367 23.5928 62.8184 23.0303C63.0059 22.4678 63.2637 21.9844 63.5918 21.5801C63.9258 21.1758 64.3242 20.8652 64.7871 20.6484C65.25 20.4258 65.7656 20.3145 66.334 20.3145C66.791 20.3145 67.2041 20.3789 67.5732 20.5078C67.9482 20.6309 68.2676 20.833 68.5312 21.1143C68.8008 21.3955 69.0059 21.7617 69.1465 22.2129C69.2871 22.6582 69.3574 23.2061 69.3574 23.8564V30H67.2305V23.8477C67.2305 23.3906 67.1631 23.0303 67.0283 22.7666C66.8994 22.4971 66.709 22.3066 66.457 22.1953C66.2109 22.0781 65.9033 22.0195 65.5342 22.0195C65.1709 22.0195 64.8457 22.0957 64.5586 22.248C64.2715 22.4004 64.0283 22.6084 63.8291 22.8721C63.6357 23.1357 63.4863 23.4404 63.3809 23.7861C63.2754 24.1318 63.2227 24.501 63.2227 24.8936ZM73.7871 16.5V30H71.6602V16.5H73.7871ZM78.375 20.4902V30H76.248V20.4902H78.375ZM76.1074 17.9941C76.1074 17.6719 76.2129 17.4053 76.4238 17.1943C76.6406 16.9775 76.9395 16.8691 77.3203 16.8691C77.6953 16.8691 77.9912 16.9775 78.208 17.1943C78.4248 17.4053 78.5332 17.6719 78.5332 17.9941C78.5332 18.3105 78.4248 18.5742 78.208 18.7852C77.9912 18.9961 77.6953 19.1016 77.3203 19.1016C76.9395 19.1016 76.6406 18.9961 76.4238 18.7852C76.2129 18.5742 76.1074 18.3105 76.1074 17.9941ZM82.7959 22.5205V30H80.6777V20.4902H82.6729L82.7959 22.5205ZM82.418 24.8936L81.7324 24.8848C81.7383 24.2109 81.832 23.5928 82.0137 23.0303C82.2012 22.4678 82.459 21.9844 82.7871 21.5801C83.1211 21.1758 83.5195 20.8652 83.9824 20.6484C84.4453 20.4258 84.9609 20.3145 85.5293 20.3145C85.9863 20.3145 86.3994 20.3789 86.7686 20.5078C87.1436 20.6309 87.4629 20.833 87.7266 21.1143C87.9961 21.3955 88.2012 21.7617 88.3418 22.2129C88.4824 22.6582 88.5527 23.2061 88.5527 23.8564V30H86.4258V23.8477C86.4258 23.3906 86.3584 23.0303 86.2236 22.7666C86.0947 22.4971 85.9043 22.3066 85.6523 22.1953C85.4062 22.0781 85.0986 22.0195 84.7295 22.0195C84.3662 22.0195 84.041 22.0957 83.7539 22.248C83.4668 22.4004 83.2236 22.6084 83.0244 22.8721C82.8311 23.1357 82.6816 23.4404 82.5762 23.7861C82.4707 24.1318 82.418 24.501 82.418 24.8936ZM94.9072 30.1758C94.2041 30.1758 93.5684 30.0615 93 29.833C92.4375 29.5986 91.957 29.2734 91.5586 28.8574C91.166 28.4414 90.8643 27.9521 90.6533 27.3896C90.4424 26.8271 90.3369 26.2207 90.3369 25.5703V25.2188C90.3369 24.4746 90.4453 23.8008 90.6621 23.1973C90.8789 22.5938 91.1807 22.0781 91.5674 21.6504C91.9541 21.2168 92.4111 20.8857 92.9385 20.6572C93.4658 20.4287 94.0371 20.3145 94.6523 20.3145C95.332 20.3145 95.9268 20.4287 96.4365 20.6572C96.9463 20.8857 97.3682 21.208 97.7021 21.624C98.042 22.0342 98.2939 22.5234 98.458 23.0918C98.6279 23.6602 98.7129 24.2871 98.7129 24.9727V25.8779H91.3652V24.3574H96.6211V24.1904C96.6094 23.8096 96.5332 23.4521 96.3926 23.1182C96.2578 22.7842 96.0498 22.5146 95.7686 22.3096C95.4873 22.1045 95.1123 22.002 94.6436 22.002C94.292 22.002 93.9785 22.0781 93.7031 22.2305C93.4336 22.377 93.208 22.5908 93.0264 22.8721C92.8447 23.1533 92.7041 23.4932 92.6045 23.8916C92.5107 24.2842 92.4639 24.7266 92.4639 25.2188V25.5703C92.4639 25.9863 92.5195 26.373 92.6309 26.7305C92.748 27.082 92.918 27.3896 93.1406 27.6533C93.3633 27.917 93.6328 28.125 93.9492 28.2773C94.2656 28.4238 94.626 28.4971 95.0303 28.4971C95.54 28.4971 95.9941 28.3945 96.3926 28.1895C96.791 27.9844 97.1367 27.6943 97.4297 27.3193L98.5459 28.4004C98.3408 28.6992 98.0742 28.9863 97.7461 29.2617C97.418 29.5312 97.0166 29.751 96.542 29.9209C96.0732 30.0908 95.5283 30.1758 94.9072 30.1758Z" fill="#343434"/>
<defs>
<clipPath id="clip0_5099_233">
<rect width="24" height="24" fill="white" transform="translate(16 11.5)"/>
</clipPath>
</defs>
</svg>
