<svg width="209" height="45" viewBox="0 0 209 45" fill="none" xmlns="http://www.w3.org/2000/svg">
<path d="M10.2686 25.0459H4.7168V22.1309H10.2686C11.2354 22.1309 12.0166 21.9746 12.6123 21.6621C13.208 21.3496 13.6426 20.9199 13.916 20.373C14.1992 19.8164 14.3408 19.1816 14.3408 18.4688C14.3408 17.7949 14.1992 17.165 13.916 16.5791C13.6426 15.9834 13.208 15.5049 12.6123 15.1436C12.0166 14.7822 11.2354 14.6016 10.2686 14.6016H5.84473V33H2.16797V11.6719H10.2686C11.9189 11.6719 13.3203 11.9648 14.4727 12.5508C15.6348 13.127 16.5186 13.9277 17.124 14.9531C17.7295 15.9687 18.0322 17.1309 18.0322 18.4395C18.0322 19.8164 17.7295 20.998 17.124 21.9844C16.5186 22.9707 15.6348 23.7275 14.4727 24.2549C13.3203 24.7822 11.9189 25.0459 10.2686 25.0459ZM21.3281 11.6719H28.8721C30.4932 11.6719 31.875 11.916 33.0176 12.4043C34.1602 12.8926 35.0342 13.6152 35.6396 14.5723C36.2549 15.5195 36.5625 16.6914 36.5625 18.0879C36.5625 19.1523 36.3672 20.0898 35.9766 20.9004C35.5859 21.7109 35.0342 22.3945 34.3213 22.9512C33.6084 23.498 32.7588 23.9229 31.7725 24.2256L30.6592 24.7676H23.877L23.8477 21.8525H28.9307C29.8096 21.8525 30.542 21.6963 31.1279 21.3838C31.7139 21.0713 32.1533 20.6465 32.4463 20.1094C32.749 19.5625 32.9004 18.9473 32.9004 18.2637C32.9004 17.5215 32.7539 16.877 32.4609 16.3301C32.1777 15.7734 31.7383 15.3486 31.1426 15.0557C30.5469 14.7529 29.79 14.6016 28.8721 14.6016H25.0049V33H21.3281V11.6719ZM33.501 33L28.4912 23.4199L32.3438 23.4053L37.4268 32.8096V33H33.501ZM44.1504 11.6719V33H40.4736V11.6719H44.1504ZM61.3184 26.0566H64.9805C64.8633 27.4531 64.4727 28.6982 63.8086 29.792C63.1445 30.876 62.2119 31.7305 61.0107 32.3555C59.8096 32.9805 58.3496 33.293 56.6309 33.293C55.3125 33.293 54.126 33.0586 53.0713 32.5898C52.0166 32.1113 51.1133 31.4375 50.3613 30.5684C49.6094 29.6895 49.0332 28.6299 48.6328 27.3896C48.2422 26.1494 48.0469 24.7627 48.0469 23.2295V21.457C48.0469 19.9238 48.2471 18.5371 48.6475 17.2969C49.0576 16.0566 49.6436 14.9971 50.4053 14.1182C51.167 13.2295 52.0801 12.5508 53.1445 12.082C54.2188 11.6133 55.4248 11.3789 56.7627 11.3789C58.4619 11.3789 59.8975 11.6914 61.0693 12.3164C62.2412 12.9414 63.1494 13.8057 63.7939 14.9092C64.4482 16.0127 64.8486 17.2773 64.9951 18.7031H61.333C61.2354 17.7852 61.0205 16.999 60.6885 16.3447C60.3662 15.6904 59.8877 15.1924 59.2529 14.8506C58.6182 14.499 57.7881 14.3232 56.7627 14.3232C55.9229 14.3232 55.1904 14.4795 54.5654 14.792C53.9404 15.1045 53.418 15.5635 52.998 16.1689C52.5781 16.7744 52.2607 17.5215 52.0459 18.4102C51.8408 19.2891 51.7383 20.2949 51.7383 21.4277V23.2295C51.7383 24.3037 51.8311 25.2803 52.0166 26.1592C52.2119 27.0283 52.5049 27.7754 52.8955 28.4004C53.2959 29.0254 53.8037 29.5088 54.4189 29.8506C55.0342 30.1924 55.7715 30.3633 56.6309 30.3633C57.6758 30.3633 58.5205 30.1973 59.165 29.8652C59.8193 29.5332 60.3125 29.0498 60.6445 28.415C60.9863 27.7705 61.2109 26.9844 61.3184 26.0566ZM82.2803 30.085V33H70.957V30.085H82.2803ZM71.9971 11.6719V33H68.3203V11.6719H71.9971ZM80.8008 20.5781V23.4492H70.957V20.5781H80.8008ZM82.207 11.6719V14.6016H70.957V11.6719H82.207Z" fill="#003366"/>
<path d="M100 0V45" stroke="#003366" stroke-width="2"/>
<path d="M126.368 8.25879V12.6387H124.112V8.25879H126.368ZM126.09 32.1797V36.1055H123.849V32.1797H126.09ZM128.302 27.4482C128.302 26.8818 128.185 26.3887 127.95 25.9688C127.726 25.5391 127.354 25.1533 126.837 24.8115C126.319 24.46 125.626 24.1328 124.757 23.8301C123.507 23.3906 122.413 22.8975 121.476 22.3506C120.548 21.7939 119.825 21.1104 119.308 20.2998C118.8 19.4795 118.546 18.459 118.546 17.2383C118.546 16.0371 118.819 14.9971 119.366 14.1182C119.923 13.2393 120.694 12.5605 121.681 12.082C122.667 11.6035 123.819 11.3643 125.138 11.3643C126.153 11.3643 127.066 11.5156 127.877 11.8184C128.697 12.1211 129.396 12.5654 129.972 13.1514C130.548 13.7373 130.987 14.46 131.29 15.3193C131.603 16.1689 131.759 17.1455 131.759 18.249H128.243C128.243 17.624 128.17 17.0674 128.023 16.5791C127.887 16.0811 127.682 15.6611 127.408 15.3193C127.135 14.9678 126.803 14.6992 126.412 14.5137C126.031 14.3281 125.597 14.2354 125.108 14.2354C124.415 14.2354 123.844 14.3672 123.395 14.6309C122.945 14.8848 122.613 15.2363 122.398 15.6855C122.193 16.1348 122.091 16.6475 122.091 17.2236C122.091 17.7803 122.198 18.2686 122.413 18.6885C122.628 19.1084 122.994 19.4893 123.512 19.8311C124.039 20.1631 124.762 20.5 125.68 20.8418C126.939 21.291 128.028 21.7939 128.946 22.3506C129.874 22.8975 130.587 23.5762 131.085 24.3867C131.593 25.1875 131.847 26.1982 131.847 27.4189C131.847 28.6787 131.554 29.748 130.968 30.627C130.392 31.5059 129.581 32.1748 128.536 32.6338C127.501 33.083 126.295 33.3076 124.918 33.3076C124.049 33.3076 123.185 33.1953 122.325 32.9707C121.476 32.7363 120.704 32.3555 120.011 31.8281C119.317 31.3008 118.766 30.6025 118.355 29.7334C117.945 28.8545 117.74 27.7803 117.74 26.5107H121.285C121.285 27.2725 121.388 27.9072 121.593 28.415C121.798 28.9229 122.076 29.3232 122.428 29.6162C122.779 29.9092 123.17 30.1191 123.6 30.2461C124.039 30.373 124.479 30.4365 124.918 30.4365C125.65 30.4365 126.266 30.3145 126.764 30.0703C127.271 29.8164 127.652 29.4648 127.906 29.0156C128.17 28.5566 128.302 28.0342 128.302 27.4482ZM145.602 11.54H146.041V14.4258H145.792C144.532 14.4258 143.443 14.6211 142.525 15.0117C141.617 15.4023 140.87 15.9395 140.284 16.623C139.698 17.3066 139.259 18.1074 138.966 19.0254C138.683 19.9336 138.541 20.9004 138.541 21.9258V25.2803C138.541 26.1299 138.634 26.8818 138.819 27.5361C139.005 28.1807 139.264 28.7227 139.596 29.1621C139.938 29.5918 140.328 29.9189 140.768 30.1436C141.207 30.3682 141.681 30.4805 142.188 30.4805C142.716 30.4805 143.194 30.373 143.624 30.1582C144.054 29.9336 144.42 29.626 144.723 29.2354C145.025 28.8447 145.255 28.3809 145.411 27.8438C145.567 27.3066 145.646 26.7207 145.646 26.0859C145.646 25.4805 145.567 24.9141 145.411 24.3867C145.265 23.8496 145.045 23.3809 144.752 22.9805C144.459 22.5703 144.093 22.2529 143.653 22.0283C143.224 21.7939 142.726 21.6768 142.159 21.6768C141.456 21.6768 140.816 21.8428 140.24 22.1748C139.674 22.5068 139.215 22.9414 138.863 23.4785C138.521 24.0059 138.336 24.5674 138.307 25.1631L136.959 24.7236C137.037 23.8154 137.237 23 137.56 22.2773C137.892 21.5547 138.326 20.9395 138.863 20.4316C139.4 19.9238 140.021 19.5381 140.724 19.2744C141.437 19.001 142.218 18.8643 143.067 18.8643C144.103 18.8643 145.001 19.0596 145.763 19.4502C146.524 19.8408 147.154 20.373 147.652 21.0469C148.16 21.7109 148.536 22.4727 148.78 23.332C149.034 24.1816 149.161 25.0703 149.161 25.998C149.161 27.0234 149.005 27.9805 148.692 28.8691C148.38 29.748 147.921 30.5195 147.315 31.1836C146.72 31.8477 145.992 32.3652 145.133 32.7363C144.283 33.1074 143.316 33.293 142.232 33.293C141.09 33.293 140.069 33.0732 139.171 32.6338C138.282 32.1943 137.525 31.5889 136.9 30.8174C136.285 30.0459 135.816 29.1572 135.494 28.1514C135.172 27.1455 135.011 26.0811 135.011 24.958V23.4932C135.011 21.8721 135.216 20.3438 135.626 18.9082C136.036 17.4629 136.666 16.1885 137.516 15.085C138.375 13.9814 139.474 13.1172 140.812 12.4922C142.149 11.8574 143.746 11.54 145.602 11.54ZM174.151 25.3975V28.21H158.771L158.653 26.0859L167.853 11.6719H170.68L167.618 16.916L162.33 25.3975H174.151ZM171.485 11.6719V33H167.955V11.6719H171.485ZM179.352 30.2168H179.645C180.992 30.2168 182.115 30.041 183.014 29.6895C183.922 29.3281 184.645 28.8301 185.182 28.1953C185.719 27.5605 186.104 26.8135 186.339 25.9541C186.573 25.0947 186.69 24.1621 186.69 23.1562V19.4795C186.69 18.6104 186.598 17.8486 186.412 17.1943C186.236 16.5303 185.982 15.9785 185.65 15.5391C185.328 15.0898 184.952 14.7529 184.522 14.5283C184.103 14.3037 183.648 14.1914 183.16 14.1914C182.623 14.1914 182.14 14.3135 181.71 14.5576C181.29 14.792 180.934 15.1191 180.641 15.5391C180.357 15.9492 180.138 16.4326 179.981 16.9893C179.835 17.5361 179.762 18.1221 179.762 18.7471C179.762 19.333 179.83 19.8994 179.967 20.4463C180.113 20.9834 180.328 21.4619 180.611 21.8818C180.895 22.3018 181.251 22.6338 181.681 22.8779C182.11 23.1221 182.613 23.2441 183.189 23.2441C183.736 23.2441 184.239 23.1416 184.698 22.9365C185.157 22.7217 185.558 22.4336 185.899 22.0723C186.241 21.7109 186.51 21.3057 186.705 20.8564C186.9 20.4072 187.008 19.9482 187.027 19.4795L188.375 19.8896C188.375 20.6318 188.219 21.3643 187.906 22.0869C187.604 22.7998 187.179 23.4541 186.632 24.0498C186.095 24.6357 185.465 25.1045 184.742 25.4561C184.029 25.8076 183.253 25.9834 182.413 25.9834C181.397 25.9834 180.499 25.793 179.718 25.4121C178.946 25.0215 178.302 24.4941 177.784 23.8301C177.276 23.166 176.896 22.4043 176.642 21.5449C176.388 20.6855 176.261 19.7822 176.261 18.835C176.261 17.8096 176.417 16.8477 176.729 15.9492C177.042 15.0508 177.496 14.2598 178.092 13.5762C178.688 12.8828 179.41 12.3457 180.26 11.9648C181.119 11.5742 182.091 11.3789 183.175 11.3789C184.327 11.3789 185.338 11.6035 186.207 12.0527C187.076 12.502 187.809 13.1221 188.404 13.9131C189 14.7041 189.449 15.6221 189.752 16.667C190.055 17.7119 190.206 18.835 190.206 20.0361V21.2812C190.206 22.541 190.094 23.7568 189.869 24.9287C189.645 26.0908 189.278 27.1699 188.771 28.166C188.272 29.1523 187.613 30.0215 186.793 30.7734C185.982 31.5156 184.986 32.0967 183.805 32.5166C182.633 32.9268 181.256 33.1318 179.674 33.1318H179.352V30.2168ZM196.402 30.2168H196.695C198.043 30.2168 199.166 30.041 200.064 29.6895C200.973 29.3281 201.695 28.8301 202.232 28.1953C202.77 27.5605 203.155 26.8135 203.39 25.9541C203.624 25.0947 203.741 24.1621 203.741 23.1562V19.4795C203.741 18.6104 203.648 17.8486 203.463 17.1943C203.287 16.5303 203.033 15.9785 202.701 15.5391C202.379 15.0898 202.003 14.7529 201.573 14.5283C201.153 14.3037 200.699 14.1914 200.211 14.1914C199.674 14.1914 199.19 14.3135 198.761 14.5576C198.341 14.792 197.984 15.1191 197.691 15.5391C197.408 15.9492 197.188 16.4326 197.032 16.9893C196.886 17.5361 196.812 18.1221 196.812 18.7471C196.812 19.333 196.881 19.8994 197.018 20.4463C197.164 20.9834 197.379 21.4619 197.662 21.8818C197.945 22.3018 198.302 22.6338 198.731 22.8779C199.161 23.1221 199.664 23.2441 200.24 23.2441C200.787 23.2441 201.29 23.1416 201.749 22.9365C202.208 22.7217 202.608 22.4336 202.95 22.0723C203.292 21.7109 203.561 21.3057 203.756 20.8564C203.951 20.4072 204.059 19.9482 204.078 19.4795L205.426 19.8896C205.426 20.6318 205.27 21.3643 204.957 22.0869C204.654 22.7998 204.229 23.4541 203.683 24.0498C203.146 24.6357 202.516 25.1045 201.793 25.4561C201.08 25.8076 200.304 25.9834 199.464 25.9834C198.448 25.9834 197.55 25.793 196.769 25.4121C195.997 25.0215 195.353 24.4941 194.835 23.8301C194.327 23.166 193.946 22.4043 193.692 21.5449C193.438 20.6855 193.312 19.7822 193.312 18.835C193.312 17.8096 193.468 16.8477 193.78 15.9492C194.093 15.0508 194.547 14.2598 195.143 13.5762C195.738 12.8828 196.461 12.3457 197.311 11.9648C198.17 11.5742 199.142 11.3789 200.226 11.3789C201.378 11.3789 202.389 11.6035 203.258 12.0527C204.127 12.502 204.859 13.1221 205.455 13.9131C206.051 14.7041 206.5 15.6221 206.803 16.667C207.105 17.7119 207.257 18.835 207.257 20.0361V21.2812C207.257 22.541 207.145 23.7568 206.92 24.9287C206.695 26.0908 206.329 27.1699 205.821 28.166C205.323 29.1523 204.664 30.0215 203.844 30.7734C203.033 31.5156 202.037 32.0967 200.855 32.5166C199.684 32.9268 198.307 33.1318 196.725 33.1318H196.402V30.2168Z" fill="#003366"/>
</svg>
