<svg width="209" height="45" viewBox="0 0 209 45" fill="none" xmlns="http://www.w3.org/2000/svg">
<path d="M10.2686 25.0459H4.7168V22.1309H10.2686C11.2354 22.1309 12.0166 21.9746 12.6123 21.6621C13.208 21.3496 13.6426 20.9199 13.916 20.373C14.1992 19.8164 14.3408 19.1816 14.3408 18.4688C14.3408 17.7949 14.1992 17.165 13.916 16.5791C13.6426 15.9834 13.208 15.5049 12.6123 15.1436C12.0166 14.7822 11.2354 14.6016 10.2686 14.6016H5.84473V33H2.16797V11.6719H10.2686C11.9189 11.6719 13.3203 11.9648 14.4727 12.5508C15.6348 13.127 16.5186 13.9277 17.124 14.9531C17.7295 15.9687 18.0322 17.1309 18.0322 18.4395C18.0322 19.8164 17.7295 20.998 17.124 21.9844C16.5186 22.9707 15.6348 23.7275 14.4727 24.2549C13.3203 24.7822 11.9189 25.0459 10.2686 25.0459ZM21.3281 11.6719H28.8721C30.4932 11.6719 31.875 11.916 33.0176 12.4043C34.1602 12.8926 35.0342 13.6152 35.6396 14.5723C36.2549 15.5195 36.5625 16.6914 36.5625 18.0879C36.5625 19.1523 36.3672 20.0898 35.9766 20.9004C35.5859 21.7109 35.0342 22.3945 34.3213 22.9512C33.6084 23.498 32.7588 23.9229 31.7725 24.2256L30.6592 24.7676H23.877L23.8477 21.8525H28.9307C29.8096 21.8525 30.542 21.6963 31.1279 21.3838C31.7139 21.0713 32.1533 20.6465 32.4463 20.1094C32.749 19.5625 32.9004 18.9473 32.9004 18.2637C32.9004 17.5215 32.7539 16.877 32.4609 16.3301C32.1777 15.7734 31.7383 15.3486 31.1426 15.0557C30.5469 14.7529 29.79 14.6016 28.8721 14.6016H25.0049V33H21.3281V11.6719ZM33.501 33L28.4912 23.4199L32.3438 23.4053L37.4268 32.8096V33H33.501ZM44.1504 11.6719V33H40.4736V11.6719H44.1504ZM61.3184 26.0566H64.9805C64.8633 27.4531 64.4727 28.6982 63.8086 29.792C63.1445 30.876 62.2119 31.7305 61.0107 32.3555C59.8096 32.9805 58.3496 33.293 56.6309 33.293C55.3125 33.293 54.126 33.0586 53.0713 32.5898C52.0166 32.1113 51.1133 31.4375 50.3613 30.5684C49.6094 29.6895 49.0332 28.6299 48.6328 27.3896C48.2422 26.1494 48.0469 24.7627 48.0469 23.2295V21.457C48.0469 19.9238 48.2471 18.5371 48.6475 17.2969C49.0576 16.0566 49.6436 14.9971 50.4053 14.1182C51.167 13.2295 52.0801 12.5508 53.1445 12.082C54.2188 11.6133 55.4248 11.3789 56.7627 11.3789C58.4619 11.3789 59.8975 11.6914 61.0693 12.3164C62.2412 12.9414 63.1494 13.8057 63.7939 14.9092C64.4482 16.0127 64.8486 17.2773 64.9951 18.7031H61.333C61.2354 17.7852 61.0205 16.999 60.6885 16.3447C60.3662 15.6904 59.8877 15.1924 59.2529 14.8506C58.6182 14.499 57.7881 14.3232 56.7627 14.3232C55.9229 14.3232 55.1904 14.4795 54.5654 14.792C53.9404 15.1045 53.418 15.5635 52.998 16.1689C52.5781 16.7744 52.2607 17.5215 52.0459 18.4102C51.8408 19.2891 51.7383 20.2949 51.7383 21.4277V23.2295C51.7383 24.3037 51.8311 25.2803 52.0166 26.1592C52.2119 27.0283 52.5049 27.7754 52.8955 28.4004C53.2959 29.0254 53.8037 29.5088 54.4189 29.8506C55.0342 30.1924 55.7715 30.3633 56.6309 30.3633C57.6758 30.3633 58.5205 30.1973 59.165 29.8652C59.8193 29.5332 60.3125 29.0498 60.6445 28.415C60.9863 27.7705 61.2109 26.9844 61.3184 26.0566ZM82.2803 30.085V33H70.957V30.085H82.2803ZM71.9971 11.6719V33H68.3203V11.6719H71.9971ZM80.8008 20.5781V23.4492H70.957V20.5781H80.8008ZM82.207 11.6719V14.6016H70.957V11.6719H82.207Z" fill="#003366"/>
<path d="M100 0V45" stroke="#003366" stroke-width="2"/>
<path d="M126.368 8.25879V12.6387H124.112V8.25879H126.368ZM126.09 32.1797V36.1055H123.849V32.1797H126.09ZM128.302 27.4482C128.302 26.8818 128.185 26.3887 127.95 25.9688C127.726 25.5391 127.354 25.1533 126.837 24.8115C126.319 24.46 125.626 24.1328 124.757 23.8301C123.507 23.3906 122.413 22.8975 121.476 22.3506C120.548 21.7939 119.825 21.1104 119.308 20.2998C118.8 19.4795 118.546 18.459 118.546 17.2383C118.546 16.0371 118.819 14.9971 119.366 14.1182C119.923 13.2393 120.694 12.5605 121.681 12.082C122.667 11.6035 123.819 11.3643 125.138 11.3643C126.153 11.3643 127.066 11.5156 127.877 11.8184C128.697 12.1211 129.396 12.5654 129.972 13.1514C130.548 13.7373 130.987 14.46 131.29 15.3193C131.603 16.1689 131.759 17.1455 131.759 18.249H128.243C128.243 17.624 128.17 17.0674 128.023 16.5791C127.887 16.0811 127.682 15.6611 127.408 15.3193C127.135 14.9678 126.803 14.6992 126.412 14.5137C126.031 14.3281 125.597 14.2354 125.108 14.2354C124.415 14.2354 123.844 14.3672 123.395 14.6309C122.945 14.8848 122.613 15.2363 122.398 15.6855C122.193 16.1348 122.091 16.6475 122.091 17.2236C122.091 17.7803 122.198 18.2686 122.413 18.6885C122.628 19.1084 122.994 19.4893 123.512 19.8311C124.039 20.1631 124.762 20.5 125.68 20.8418C126.939 21.291 128.028 21.7939 128.946 22.3506C129.874 22.8975 130.587 23.5762 131.085 24.3867C131.593 25.1875 131.847 26.1982 131.847 27.4189C131.847 28.6787 131.554 29.748 130.968 30.627C130.392 31.5059 129.581 32.1748 128.536 32.6338C127.501 33.083 126.295 33.3076 124.918 33.3076C124.049 33.3076 123.185 33.1953 122.325 32.9707C121.476 32.7363 120.704 32.3555 120.011 31.8281C119.317 31.3008 118.766 30.6025 118.355 29.7334C117.945 28.8545 117.74 27.7803 117.74 26.5107H121.285C121.285 27.2725 121.388 27.9072 121.593 28.415C121.798 28.9229 122.076 29.3232 122.428 29.6162C122.779 29.9092 123.17 30.1191 123.6 30.2461C124.039 30.373 124.479 30.4365 124.918 30.4365C125.65 30.4365 126.266 30.3145 126.764 30.0703C127.271 29.8164 127.652 29.4648 127.906 29.0156C128.17 28.5566 128.302 28.0342 128.302 27.4482ZM148.883 27.1846C148.883 28.5127 148.575 29.6309 147.96 30.5391C147.345 31.4473 146.505 32.1357 145.44 32.6045C144.386 33.0635 143.194 33.293 141.866 33.293C140.538 33.293 139.342 33.0635 138.277 32.6045C137.213 32.1357 136.373 31.4473 135.758 30.5391C135.143 29.6309 134.835 28.5127 134.835 27.1846C134.835 26.3057 135.006 25.5098 135.348 24.7969C135.689 24.0742 136.173 23.4541 136.798 22.9365C137.433 22.4092 138.175 22.0039 139.024 21.7207C139.884 21.4375 140.821 21.2959 141.837 21.2959C143.185 21.2959 144.391 21.5449 145.455 22.043C146.52 22.541 147.354 23.2295 147.96 24.1084C148.575 24.9873 148.883 26.0127 148.883 27.1846ZM145.338 27.0088C145.338 26.2959 145.191 25.6709 144.898 25.1338C144.605 24.5967 144.195 24.1816 143.668 23.8887C143.141 23.5957 142.53 23.4492 141.837 23.4492C141.134 23.4492 140.523 23.5957 140.006 23.8887C139.488 24.1816 139.083 24.5967 138.79 25.1338C138.507 25.6709 138.365 26.2959 138.365 27.0088C138.365 27.7314 138.507 28.3564 138.79 28.8838C139.073 29.4014 139.479 29.7969 140.006 30.0703C140.533 30.3438 141.153 30.4805 141.866 30.4805C142.579 30.4805 143.194 30.3438 143.712 30.0703C144.229 29.7969 144.63 29.4014 144.913 28.8838C145.196 28.3564 145.338 27.7314 145.338 27.0088ZM148.399 17.2822C148.399 18.3467 148.116 19.2939 147.55 20.124C146.993 20.9541 146.222 21.6084 145.235 22.0869C144.249 22.5557 143.126 22.79 141.866 22.79C140.597 22.79 139.464 22.5557 138.468 22.0869C137.481 21.6084 136.705 20.9541 136.139 20.124C135.582 19.2939 135.304 18.3467 135.304 17.2822C135.304 16.0127 135.582 14.9434 136.139 14.0742C136.705 13.1953 137.481 12.5264 138.468 12.0674C139.454 11.6084 140.582 11.3789 141.852 11.3789C143.121 11.3789 144.249 11.6084 145.235 12.0674C146.222 12.5264 146.993 13.1953 147.55 14.0742C148.116 14.9434 148.399 16.0127 148.399 17.2822ZM144.869 17.3994C144.869 16.7646 144.742 16.208 144.488 15.7295C144.244 15.2412 143.897 14.8604 143.448 14.5869C142.999 14.3135 142.467 14.1768 141.852 14.1768C141.236 14.1768 140.704 14.3086 140.255 14.5723C139.806 14.8359 139.459 15.207 139.215 15.6855C138.971 16.1641 138.849 16.7354 138.849 17.3994C138.849 18.0537 138.971 18.625 139.215 19.1133C139.459 19.5918 139.806 19.9678 140.255 20.2412C140.714 20.5146 141.251 20.6514 141.866 20.6514C142.481 20.6514 143.014 20.5146 143.463 20.2412C143.912 19.9678 144.259 19.5918 144.503 19.1133C144.747 18.625 144.869 18.0537 144.869 17.3994ZM174.151 25.3975V28.21H158.771L158.653 26.0859L167.853 11.6719H170.68L167.618 16.916L162.33 25.3975H174.151ZM171.485 11.6719V33H167.955V11.6719H171.485ZM179.352 30.2168H179.645C180.992 30.2168 182.115 30.041 183.014 29.6895C183.922 29.3281 184.645 28.8301 185.182 28.1953C185.719 27.5605 186.104 26.8135 186.339 25.9541C186.573 25.0947 186.69 24.1621 186.69 23.1562V19.4795C186.69 18.6104 186.598 17.8486 186.412 17.1943C186.236 16.5303 185.982 15.9785 185.65 15.5391C185.328 15.0898 184.952 14.7529 184.522 14.5283C184.103 14.3037 183.648 14.1914 183.16 14.1914C182.623 14.1914 182.14 14.3135 181.71 14.5576C181.29 14.792 180.934 15.1191 180.641 15.5391C180.357 15.9492 180.138 16.4326 179.981 16.9893C179.835 17.5361 179.762 18.1221 179.762 18.7471C179.762 19.333 179.83 19.8994 179.967 20.4463C180.113 20.9834 180.328 21.4619 180.611 21.8818C180.895 22.3018 181.251 22.6338 181.681 22.8779C182.11 23.1221 182.613 23.2441 183.189 23.2441C183.736 23.2441 184.239 23.1416 184.698 22.9365C185.157 22.7217 185.558 22.4336 185.899 22.0723C186.241 21.7109 186.51 21.3057 186.705 20.8564C186.9 20.4072 187.008 19.9482 187.027 19.4795L188.375 19.8896C188.375 20.6318 188.219 21.3643 187.906 22.0869C187.604 22.7998 187.179 23.4541 186.632 24.0498C186.095 24.6357 185.465 25.1045 184.742 25.4561C184.029 25.8076 183.253 25.9834 182.413 25.9834C181.397 25.9834 180.499 25.793 179.718 25.4121C178.946 25.0215 178.302 24.4941 177.784 23.8301C177.276 23.166 176.896 22.4043 176.642 21.5449C176.388 20.6855 176.261 19.7822 176.261 18.835C176.261 17.8096 176.417 16.8477 176.729 15.9492C177.042 15.0508 177.496 14.2598 178.092 13.5762C178.688 12.8828 179.41 12.3457 180.26 11.9648C181.119 11.5742 182.091 11.3789 183.175 11.3789C184.327 11.3789 185.338 11.6035 186.207 12.0527C187.076 12.502 187.809 13.1221 188.404 13.9131C189 14.7041 189.449 15.6221 189.752 16.667C190.055 17.7119 190.206 18.835 190.206 20.0361V21.2812C190.206 22.541 190.094 23.7568 189.869 24.9287C189.645 26.0908 189.278 27.1699 188.771 28.166C188.272 29.1523 187.613 30.0215 186.793 30.7734C185.982 31.5156 184.986 32.0967 183.805 32.5166C182.633 32.9268 181.256 33.1318 179.674 33.1318H179.352V30.2168ZM196.402 30.2168H196.695C198.043 30.2168 199.166 30.041 200.064 29.6895C200.973 29.3281 201.695 28.8301 202.232 28.1953C202.77 27.5605 203.155 26.8135 203.39 25.9541C203.624 25.0947 203.741 24.1621 203.741 23.1562V19.4795C203.741 18.6104 203.648 17.8486 203.463 17.1943C203.287 16.5303 203.033 15.9785 202.701 15.5391C202.379 15.0898 202.003 14.7529 201.573 14.5283C201.153 14.3037 200.699 14.1914 200.211 14.1914C199.674 14.1914 199.19 14.3135 198.761 14.5576C198.341 14.792 197.984 15.1191 197.691 15.5391C197.408 15.9492 197.188 16.4326 197.032 16.9893C196.886 17.5361 196.812 18.1221 196.812 18.7471C196.812 19.333 196.881 19.8994 197.018 20.4463C197.164 20.9834 197.379 21.4619 197.662 21.8818C197.945 22.3018 198.302 22.6338 198.731 22.8779C199.161 23.1221 199.664 23.2441 200.24 23.2441C200.787 23.2441 201.29 23.1416 201.749 22.9365C202.208 22.7217 202.608 22.4336 202.95 22.0723C203.292 21.7109 203.561 21.3057 203.756 20.8564C203.951 20.4072 204.059 19.9482 204.078 19.4795L205.426 19.8896C205.426 20.6318 205.27 21.3643 204.957 22.0869C204.654 22.7998 204.229 23.4541 203.683 24.0498C203.146 24.6357 202.516 25.1045 201.793 25.4561C201.08 25.8076 200.304 25.9834 199.464 25.9834C198.448 25.9834 197.55 25.793 196.769 25.4121C195.997 25.0215 195.353 24.4941 194.835 23.8301C194.327 23.166 193.946 22.4043 193.692 21.5449C193.438 20.6855 193.312 19.7822 193.312 18.835C193.312 17.8096 193.468 16.8477 193.78 15.9492C194.093 15.0508 194.547 14.2598 195.143 13.5762C195.738 12.8828 196.461 12.3457 197.311 11.9648C198.17 11.5742 199.142 11.3789 200.226 11.3789C201.378 11.3789 202.389 11.6035 203.258 12.0527C204.127 12.502 204.859 13.1221 205.455 13.9131C206.051 14.7041 206.5 15.6221 206.803 16.667C207.105 17.7119 207.257 18.835 207.257 20.0361V21.2812C207.257 22.541 207.145 23.7568 206.92 24.9287C206.695 26.0908 206.329 27.1699 205.821 28.166C205.323 29.1523 204.664 30.0215 203.844 30.7734C203.033 31.5156 202.037 32.0967 200.855 32.5166C199.684 32.9268 198.307 33.1318 196.725 33.1318H196.402V30.2168Z" fill="#003366"/>
</svg>
